#define d110h.xbm_width 20
#define d110h.xbm_height 20
static char d110h.xbm_bits[] = {
   0x07, 0x1c, 0x00, 0x07, 0x1c, 0x00, 0x07, 0x1c, 0x00, 0x00, 0x00, 0x00,
   0x00, 0x00, 0x00, 0x00, 0x00, 0x00, 0x00, 0x00, 0x00, 0x00, 0x00, 0x00,
   0x00, 0x00, 0x00, 0x00, 0x00, 0x00, 0x07, 0x1c, 0x00, 0x07, 0x1c, 0x00,
   0x07, 0x1c, 0x00, 0x00, 0x00, 0x00, 0x00, 0x00, 0x00, 0x00, 0x00, 0x00,
   0x00, 0x00, 0x00, 0x00, 0x00, 0x00, 0x00, 0x00, 0x00, 0x00, 0x00, 0x00};
