#define d112.xbm_width 48
#define d112.xbm_height 48
static char d112.xbm_bits[] = {
   0xc7, 0x71, 0x1c, 0xc7, 0x71, 0x1c, 0xc7, 0x71, 0x1c, 0xc7, 0x71, 0x1c,
   0xc7, 0x71, 0x1c, 0xc7, 0x71, 0x1c, 0x00, 0x00, 0x00, 0x00, 0x00, 0x00,
   0x00, 0x00, 0x00, 0x00, 0x00, 0x00, 0x00, 0x00, 0x00, 0x00, 0x00, 0x00,
   0xc7, 0x71, 0x1c, 0xc7, 0x71, 0x1c, 0xc7, 0x71, 0x1c, 0xc7, 0x71, 0x1c,
   0xc7, 0x71, 0x1c, 0xc7, 0x71, 0x1c, 0x00, 0x00, 0x00, 0x00, 0x00, 0x00,
   0x00, 0x00, 0x00, 0x00, 0x00, 0x00, 0x00, 0x00, 0x00, 0x00, 0x00, 0x00,
   0xc7, 0x71, 0x1c, 0xc7, 0x71, 0x1c, 0xc7, 0x71, 0x1c, 0xc7, 0x71, 0x1c,
   0xc7, 0x71, 0x1c, 0xc7, 0x71, 0x1c, 0x00, 0x00, 0x00, 0x00, 0x00, 0x00,
   0x00, 0x00, 0x00, 0x00, 0x00, 0x00, 0x00, 0x00, 0x00, 0x00, 0x00, 0x00,
   0xc7, 0x71, 0x1c, 0xc7, 0x71, 0x1c, 0xc7, 0x71, 0x1c, 0xc7, 0x71, 0x1c,
   0xc7, 0x71, 0x1c, 0xc7, 0x71, 0x1c, 0x00, 0x00, 0x00, 0x00, 0x00, 0x00,
   0x00, 0x00, 0x00, 0x00, 0x00, 0x00, 0x00, 0x00, 0x00, 0x00, 0x00, 0x00,
   0xc7, 0x71, 0x1c, 0xc7, 0x71, 0x1c, 0xc7, 0x71, 0x1c, 0xc7, 0x71, 0x1c,
   0xc7, 0x71, 0x1c, 0xc7, 0x71, 0x1c, 0x00, 0x00, 0x00, 0x00, 0x00, 0x00,
   0x00, 0x00, 0x00, 0x00, 0x00, 0x00, 0x00, 0x00, 0x00, 0x00, 0x00, 0x00,
   0xc7, 0x71, 0x1c, 0xc7, 0x71, 0x1c, 0xc7, 0x71, 0x1c, 0xc7, 0x71, 0x1c,
   0xc7, 0x71, 0x1c, 0xc7, 0x71, 0x1c, 0x00, 0x00, 0x00, 0x00, 0x00, 0x00,
   0x00, 0x00, 0x00, 0x00, 0x00, 0x00, 0x00, 0x00, 0x00, 0x00, 0x00, 0x00,
   0xc7, 0x71, 0x1c, 0xc7, 0x71, 0x1c, 0xc7, 0x71, 0x1c, 0xc7, 0x71, 0x1c,
   0xc7, 0x71, 0x1c, 0xc7, 0x71, 0x1c, 0x00, 0x00, 0x00, 0x00, 0x00, 0x00,
   0x00, 0x00, 0x00, 0x00, 0x00, 0x00, 0x00, 0x00, 0x00, 0x00, 0x00, 0x00,
   0xc7, 0x71, 0x1c, 0xc7, 0x71, 0x1c, 0xc7, 0x71, 0x1c, 0xc7, 0x71, 0x1c,
   0xc7, 0x71, 0x1c, 0xc7, 0x71, 0x1c, 0x00, 0x00, 0x00, 0x00, 0x00, 0x00,
   0x00, 0x00, 0x00, 0x00, 0x00, 0x00, 0x00, 0x00, 0x00, 0x00, 0x00, 0x00};
