#define d112ah.xbm_width 20
#define d112ah.xbm_height 20
static char d112ah.xbm_bits[] = {
   0x07, 0x1c, 0x00, 0x07, 0x1c, 0x00, 0x07, 0x1c, 0x00, 0x00, 0x00, 0x00,
   0x00, 0x00, 0x00, 0xe0, 0x80, 0x03, 0xe0, 0x80, 0x03, 0xe0, 0x80, 0x03,
   0x00, 0x00, 0x00, 0x00, 0x00, 0x00, 0x07, 0x1c, 0x00, 0x07, 0x1c, 0x00,
   0x07, 0x1c, 0x00, 0x00, 0x00, 0x00, 0x00, 0x00, 0x00, 0xe0, 0x80, 0x03,
   0xe0, 0x80, 0x03, 0xe0, 0x80, 0x03, 0x00, 0x00, 0x00, 0x00, 0x00, 0x00};
