#define m16_width 64
#define m16_height 66
static char m16_bits[] = {
 0x00,0x00,0x80,0x01,0x00,0x00,0x00,0x00,0x00,0x00,0x00,0x00,0x00,0x00,0x00,
 0x00,0x00,0x00,0x00,0x40,0x00,0x08,0x00,0x00,0x00,0x00,0x00,0x80,0x01,0x08,
 0x80,0x00,0x80,0x00,0x00,0x00,0x02,0x08,0x40,0x00,0x40,0x00,0x01,0x00,0x04,
 0x08,0x20,0x00,0x20,0x00,0x01,0x00,0x18,0x10,0x10,0x00,0x20,0x00,0x01,0x00,
 0x20,0x10,0x08,0x00,0x10,0x00,0x03,0x00,0x00,0x10,0x00,0x00,0x08,0x00,0x02,
 0x00,0x00,0x20,0x00,0x00,0x00,0x00,0x02,0x80,0x00,0x00,0x00,0x00,0x00,0x00,
 0x02,0x40,0x00,0x00,0x00,0x00,0x00,0x00,0x04,0x40,0x00,0x00,0x00,0x00,0x00,
 0x00,0x00,0x20,0x00,0x00,0x00,0x20,0x00,0x00,0x00,0x20,0x00,0x00,0x00,0x10,
 0x40,0x00,0x00,0x10,0x00,0x00,0x00,0x08,0x80,0x00,0x00,0x10,0x08,0x00,0x00,
 0x04,0x80,0x00,0x00,0x08,0x10,0x00,0x04,0x04,0x80,0x00,0x00,0x00,0x10,0x00,
 0x02,0x02,0x00,0x01,0x00,0x00,0x20,0x00,0x01,0x01,0x00,0x02,0x10,0x00,0x20,
 0x80,0x00,0x00,0x00,0x00,0x08,0x00,0x40,0x40,0x00,0x00,0x00,0x00,0x04,0x00,
 0x40,0x00,0x00,0x00,0x00,0x00,0x02,0x00,0x80,0x00,0x00,0x00,0x00,0x00,0x01,
 0x00,0x00,0x00,0x00,0x00,0x00,0x00,0x00,0x00,0x01,0x00,0x00,0x00,0x00,0x00,
 0x00,0x80,0x00,0x00,0x00,0x00,0x01,0x00,0x00,0x40,0x00,0x00,0x00,0x80,0x02,
 0x00,0x00,0x40,0x00,0xc0,0x00,0x00,0x04,0x00,0x00,0x40,0x00,0x00,0x03,0x00,
 0x08,0x00,0x00,0x20,0x00,0x00,0x1c,0x00,0x10,0x00,0x00,0x20,0x00,0x00,0x20,
 0x00,0x20,0x00,0x04,0x00,0x00,0x00,0x00,0x00,0x00,0x00,0x18,0x00,0x00,0x00,
 0x00,0x00,0x00,0x10,0x60,0x00,0x00,0x01,0x00,0x00,0x00,0x08,0x80,0x00,0xc0,
 0x00,0x00,0x40,0x00,0x04,0x00,0x03,0x20,0x00,0x00,0x20,0x00,0x02,0x00,0x00,
 0x18,0x00,0x00,0x10,0x00,0x01,0x00,0x00,0x04,0x00,0x00,0x08,0x80,0x00,0x00,
 0x00,0x02,0x00,0x00,0x04,0x00,0x00,0x00,0x00,0x00,0x00,0x00,0x02,0x00,0x00,
 0x10,0x00,0x00,0x00,0x00,0x00,0x00,0x00,0x10,0x00,0x00,0x00,0x00,0x00,0x00,
 0x00,0x08,0x00,0x00,0x10,0x00,0x00,0x00,0x00,0x08,0x00,0x00,0x20,0x00,0x00,
 0x00,0x00,0x04,0x00,0x00,0x40,0x00,0x00,0x00,0x0c,0x04,0x04,0x40,0x80,0x00,
 0x00,0x00,0x02,0x02,0x08,0x40,0x00,0x01,0x20,0x80,0x01,0x00,0x08,0x20,0x00,
 0x02,0x20,0x60,0x00,0x00,0x10,0x20,0x00,0x04,0x10,0x10,0x00,0x00,0x10,0x30,
 0x00,0x00,0x10,0x00,0x00,0x00,0x20,0x10,0x00,0x00,0x10,0x00,0x00,0x00,0x20,
 0x00,0x00,0x00,0x08,0x00,0x00,0x00,0x00,0x00,0x00,0x00,0x04,0x00,0x00,0x00,
 0x00,0x00,0x00,0x00,0x04,0x00,0x0c,0x00,0x00,0x00,0x00,0x00,0x02,0x00,0xf0,
 0x01,0x00,0x00,0x00,0x00,0x00,0x00,0x00,0x06,0x00,0x00,0x06,0x00,0x00,0x00,
 0x00,0x00,0x00,0x80,0x03,0x00,0x00,0x00,0x00,0x00,0x00,0x70,0x00,0x00,0x00,
 0x04,0x00,0x00,0x00,0x0c,0x00,0x1c,0x00,0x08,0x00,0x00,0x00,0x00,0x00,0xe0,
 0x01,0x10,0x00,0x0c,0x00,0x00,0x00,0x00,0x0e,0x20,0x00,0x30,0x00,0x00,0x00,
 0x00,0x00,0x40,0x00,0xc0,0x00,0x00,0x00,0x00,0x00,0x00,0x00,0x00,0x01,0x00,
 0x00,0x00,0x00};
