#define m18.xbm_width 64
#define m18.xbm_height 64
static char m18.xbm_bits[] = {
   0x00, 0x00, 0x00, 0x00, 0x00, 0x00, 0x00, 0x00, 0x00, 0x00, 0x00, 0x00,
   0x00, 0x00, 0x00, 0x00, 0x00, 0x00, 0x00, 0x00, 0x00, 0x00, 0x00, 0x00,
   0x30, 0x00, 0xff, 0x00, 0x00, 0x04, 0x08, 0x00, 0x3c, 0x00, 0x0f, 0x00,
   0x00, 0x08, 0x06, 0x00, 0x0f, 0x00, 0x06, 0x00, 0x00, 0x08, 0x03, 0xc0,
   0x03, 0x00, 0x06, 0x00, 0x00, 0x90, 0x01, 0x80, 0x01, 0x00, 0x04, 0x00,
   0x00, 0xb0, 0x01, 0x00, 0x0f, 0x00, 0x04, 0x00, 0x00, 0xe0, 0x00, 0x00,
   0x3c, 0x00, 0x08, 0x00, 0x00, 0xe0, 0x00, 0x00, 0x30, 0x00, 0x08, 0x00,
   0x00, 0x40, 0x00, 0x00, 0x00, 0x00, 0x00, 0x60, 0x00, 0x00, 0x00, 0x00,
   0x00, 0x00, 0x00, 0xc0, 0x01, 0x00, 0x00, 0x00, 0x00, 0x00, 0x00, 0x00,
   0x07, 0x00, 0x00, 0x00, 0x00, 0x00, 0x00, 0x00, 0x1c, 0x00, 0x00, 0x00,
   0x00, 0x00, 0x00, 0x00, 0x0e, 0x00, 0x00, 0x00, 0x00, 0x00, 0x00, 0x80,
   0x07, 0x00, 0x00, 0x00, 0x00, 0x00, 0x00, 0xc0, 0x01, 0x00, 0x00, 0x00,
   0x00, 0x00, 0x00, 0x60, 0x00, 0x00, 0x08, 0x10, 0x30, 0x00, 0x00, 0x00,
   0x00, 0x00, 0x10, 0x08, 0xc0, 0x19, 0x00, 0x00, 0x00, 0x00, 0x30, 0x0c,
   0x00, 0x1f, 0x00, 0x00, 0x00, 0x00, 0x60, 0x06, 0x00, 0x0c, 0x00, 0x00,
   0x00, 0x00, 0x60, 0x03, 0x00, 0x04, 0x00, 0x00, 0x00, 0x00, 0xc0, 0x01,
   0x00, 0x02, 0x00, 0x00, 0x00, 0x00, 0xc0, 0x01, 0x00, 0x03, 0x00, 0x00,
   0x00, 0x00, 0x80, 0x01, 0x00, 0x01, 0x20, 0x00, 0x00, 0x00, 0x80, 0x00,
   0x80, 0x00, 0x60, 0x00, 0x00, 0x00, 0x00, 0x00, 0x00, 0x00, 0x40, 0x00,
   0x40, 0x00, 0x00, 0x00, 0x00, 0x00, 0xc0, 0x00, 0xc0, 0x40, 0x00, 0x00,
   0x00, 0x00, 0xc0, 0x00, 0x80, 0x30, 0x00, 0x00, 0x00, 0x00, 0x80, 0x01,
   0x80, 0x19, 0x00, 0x00, 0x00, 0x00, 0xc0, 0x01, 0x80, 0x0f, 0x00, 0x00,
   0x00, 0x00, 0xfc, 0x03, 0x00, 0x07, 0x00, 0x00, 0x00, 0x00, 0x1f, 0x00,
   0x00, 0x03, 0x00, 0x00, 0x00, 0x00, 0x00, 0x00, 0x00, 0x01, 0x00, 0x00,
   0x00, 0x00, 0x00, 0x00, 0x00, 0x00, 0x00, 0x00, 0x04, 0x00, 0x00, 0x00,
   0x00, 0x00, 0x00, 0x00, 0x04, 0x00, 0x00, 0x00, 0x00, 0x00, 0x00, 0x00,
   0x04, 0x00, 0x00, 0x00, 0x00, 0x00, 0x00, 0x00, 0x04, 0x00, 0x00, 0x04,
   0x00, 0x00, 0x10, 0x00, 0x0c, 0x00, 0x00, 0x06, 0x00, 0x00, 0x30, 0x00,
   0x0c, 0x03, 0x00, 0x02, 0x00, 0x00, 0x78, 0x00, 0xfc, 0x00, 0x00, 0x03,
   0x00, 0x00, 0x6c, 0x00, 0x3c, 0x00, 0x00, 0x03, 0x00, 0x00, 0xc6, 0x00,
   0x0c, 0x00, 0x80, 0x07, 0x00, 0x00, 0xc2, 0x00, 0x00, 0x00, 0xc0, 0x3f,
   0x00, 0x00, 0x81, 0x00, 0x00, 0x00, 0x00, 0x00, 0x00, 0x80, 0x80, 0x01,
   0x00, 0x00, 0x00, 0x00, 0x00, 0x00, 0x00, 0x01, 0x00, 0x00, 0x00, 0x00,
   0x00, 0x00, 0x00, 0x00, 0x00, 0x00, 0x00, 0x00, 0x00, 0x00, 0x00, 0x00,
   0x00, 0x00, 0x00, 0x00, 0x10, 0x00, 0x00, 0x00, 0x00, 0x20, 0x00, 0x00,
   0x10, 0x00, 0x00, 0x00, 0x00, 0xc0, 0x00, 0x00, 0x18, 0x00, 0x00, 0x00,
   0x00, 0x80, 0x03, 0x00, 0x08, 0x00, 0x00, 0x00, 0x00, 0x00, 0x07, 0x00,
   0x0c, 0x00, 0x00, 0x00, 0x07, 0x00, 0x3c, 0x00, 0x04, 0x07, 0x00, 0xfe,
   0x07, 0x00, 0x1c, 0x00, 0xc6, 0x01, 0x00, 0xc0, 0x03, 0x00, 0x0e, 0x00,
   0x7e, 0x00, 0x00, 0x80, 0x02, 0x00, 0x03, 0x00, 0x0f, 0x00, 0x00, 0x80,
   0x01, 0x80, 0x01, 0x00, 0x00, 0x00, 0x00, 0xc0, 0x00, 0x40, 0x00, 0x00,
   0x00, 0x00, 0x00, 0x40, 0x00, 0x00, 0x00, 0x00, 0x00, 0x00, 0x00, 0x20,
   0x00, 0x00, 0x00, 0x00, 0x00, 0x00, 0x00, 0x10};
