#define m19.xbm_width 64
#define m19.xbm_height 64
static char m19.xbm_bits[] = {
   0x00, 0x00, 0x00, 0x7f, 0x00, 0x40, 0x00, 0x00, 0x00, 0x00, 0x00, 0x03,
   0x00, 0x20, 0x00, 0x00, 0x00, 0x00, 0x00, 0x02, 0x00, 0x00, 0x00, 0x00,
   0x20, 0x00, 0x00, 0x02, 0x00, 0x00, 0x00, 0x00, 0x30, 0x00, 0x00, 0x04,
   0x00, 0x00, 0x00, 0x00, 0x0c, 0x00, 0x00, 0x04, 0x00, 0x00, 0x00, 0xc0,
   0x03, 0x00, 0x00, 0x08, 0x00, 0x10, 0x10, 0x80, 0x01, 0x80, 0x00, 0x00,
   0x00, 0x20, 0x08, 0x00, 0x0e, 0x40, 0x00, 0x00, 0x00, 0x20, 0x04, 0x00,
   0x30, 0x40, 0x00, 0x00, 0x00, 0x40, 0x02, 0x00, 0x00, 0x20, 0x00, 0x00,
   0x00, 0x40, 0x02, 0x00, 0x00, 0x20, 0x00, 0x00, 0x00, 0x80, 0x01, 0x00,
   0x00, 0x10, 0x07, 0x00, 0x00, 0x80, 0x00, 0x00, 0x00, 0xf0, 0x00, 0x01,
   0x00, 0x00, 0x00, 0x00, 0x00, 0x00, 0x00, 0x0e, 0x00, 0x00, 0x00, 0x00,
   0x00, 0x00, 0x00, 0x38, 0x00, 0x00, 0x00, 0x00, 0x00, 0x00, 0x00, 0x60,
   0x00, 0x04, 0x00, 0x00, 0x00, 0x00, 0x00, 0x10, 0x00, 0x02, 0x00, 0x00,
   0x00, 0x00, 0x00, 0x0c, 0x00, 0x01, 0x00, 0x00, 0x00, 0x00, 0x00, 0x02,
   0x80, 0x00, 0x08, 0x08, 0x00, 0x00, 0x00, 0x01, 0x60, 0x00, 0x10, 0x08,
   0x10, 0x00, 0x00, 0x00, 0xc0, 0x00, 0x20, 0x04, 0xe0, 0x0f, 0x00, 0x00,
   0x00, 0x03, 0x60, 0x02, 0x00, 0x04, 0x00, 0x00, 0x00, 0x0c, 0x40, 0x01,
   0x00, 0x04, 0x00, 0x00, 0x00, 0x00, 0xc0, 0x01, 0x00, 0x02, 0x00, 0x00,
   0x00, 0x00, 0x80, 0x00, 0x00, 0x01, 0x00, 0x00, 0x00, 0x00, 0x00, 0x00,
   0x80, 0x00, 0x80, 0x00, 0x00, 0x00, 0x00, 0x00, 0x00, 0x00, 0x80, 0x00,
   0x00, 0x00, 0x00, 0x00, 0x00, 0x00, 0x00, 0x01, 0x00, 0x00, 0x00, 0x00,
   0x00, 0x00, 0x00, 0x01, 0x10, 0x00, 0x00, 0x00, 0x00, 0x10, 0x00, 0x02,
   0x20, 0x00, 0x00, 0x00, 0x00, 0x10, 0x00, 0x02, 0x20, 0x04, 0x00, 0x00,
   0x00, 0x10, 0xe0, 0x03, 0x60, 0x02, 0x00, 0x00, 0x20, 0x08, 0x10, 0x00,
   0x40, 0x01, 0x00, 0x02, 0xc0, 0x08, 0x00, 0x00, 0xc0, 0x00, 0xc0, 0x01,
   0x00, 0x0b, 0x00, 0x00, 0x40, 0x00, 0x30, 0x00, 0x00, 0x0c, 0x00, 0x00,
   0x00, 0x00, 0x0c, 0x00, 0x00, 0x00, 0x00, 0x00, 0x00, 0x00, 0x10, 0x00,
   0x00, 0x00, 0x00, 0x00, 0x00, 0x00, 0x20, 0x00, 0x01, 0x00, 0x00, 0x40,
   0x00, 0x00, 0x40, 0x00, 0x01, 0x00, 0x00, 0x7c, 0x00, 0x00, 0x80, 0x00,
   0x01, 0x00, 0x80, 0x23, 0x00, 0x00, 0x00, 0x00, 0x01, 0x00, 0x00, 0x20,
   0x00, 0x80, 0x00, 0x00, 0x01, 0x00, 0x01, 0x20, 0x00, 0x80, 0x00, 0x00,
   0xc1, 0x80, 0x01, 0x10, 0x00, 0x40, 0x01, 0x00, 0x39, 0x80, 0x00, 0x10,
   0x00, 0x20, 0x02, 0x00, 0x0f, 0x40, 0x00, 0x08, 0x00, 0x10, 0x02, 0x00,
   0x01, 0x40, 0x00, 0x00, 0x00, 0x08, 0x04, 0x00, 0x00, 0x20, 0x00, 0x00,
   0x00, 0x00, 0x04, 0x00, 0x00, 0xf0, 0x07, 0x00, 0x08, 0x00, 0x00, 0x00,
   0x00, 0x00, 0x00, 0x00, 0x04, 0x00, 0x00, 0x00, 0x00, 0x00, 0x00, 0x00,
   0x02, 0x00, 0x00, 0x00, 0x00, 0x00, 0x00, 0x80, 0x01, 0x00, 0x00, 0x00,
   0x00, 0x00, 0x00, 0x40, 0x00, 0x00, 0x00, 0x00, 0x00, 0x00, 0x01, 0x60,
   0x00, 0x00, 0x00, 0x00, 0x07, 0x00, 0x02, 0x80, 0x01, 0x00, 0x00, 0xfc,
   0x04, 0x00, 0x0c, 0x00, 0x0e, 0x00, 0x00, 0x00, 0x02, 0x00, 0x30, 0x00,
   0x30, 0x00, 0x00, 0x00, 0x02, 0x00, 0x10, 0x00, 0x00, 0x00, 0x03, 0x80,
   0x01, 0x00, 0x08, 0x00, 0x00, 0xf8, 0x01, 0x80, 0x00, 0x00, 0x04, 0x00,
   0x00, 0x80, 0x00, 0x40, 0x00, 0x00, 0x02, 0x00, 0x00, 0x40, 0x00, 0x20,
   0x00, 0x00, 0x01, 0x00, 0x00, 0x60, 0x00, 0x10};
