#define m205.xbm_width 40
#define m205.xbm_height 48
static char m205.xbm_bits[] = {
   0x01, 0x04, 0x00, 0x00, 0x00, 0x02, 0x02, 0x00, 0x00, 0x00, 0x02, 0x02,
   0x00, 0x00, 0x00, 0x02, 0x02, 0x00, 0x00, 0x00, 0x04, 0x01, 0x00, 0x00,
   0x00, 0x04, 0x01, 0x00, 0x00, 0x00, 0x04, 0x01, 0x00, 0x00, 0x00, 0x88,
   0x00, 0x00, 0x00, 0x00, 0x88, 0x00, 0xf8, 0xff, 0x00, 0x88, 0x00, 0x00,
   0x00, 0x00, 0x50, 0x00, 0x00, 0x00, 0x00, 0x50, 0x00, 0x00, 0x00, 0x00,
   0x50, 0x00, 0x00, 0x00, 0x00, 0x20, 0x00, 0x00, 0x00, 0x00, 0x20, 0x00,
   0x00, 0x00, 0x00, 0x00, 0x00, 0x00, 0x00, 0x00, 0x00, 0x00, 0x00, 0x00,
   0x00, 0x00, 0x00, 0x00, 0x00, 0x00, 0x00, 0x00, 0x00, 0x00, 0x00, 0x00,
   0x00, 0x00, 0x00, 0x00, 0x00, 0x00, 0x00, 0x00, 0x00, 0x00, 0x00, 0x00,
   0x00, 0x00, 0x00, 0x00, 0x00, 0x00, 0x00, 0x00, 0x00, 0x00, 0x00, 0x00,
   0x00, 0x00, 0x10, 0x40, 0x00, 0x00, 0x00, 0x20, 0x20, 0x00, 0x00, 0x00,
   0x20, 0x20, 0x00, 0x00, 0x00, 0x20, 0x20, 0x00, 0x00, 0x00, 0x40, 0x10,
   0x00, 0x00, 0x00, 0x40, 0x10, 0x00, 0x00, 0x00, 0x40, 0x10, 0x00, 0x00,
   0x00, 0x80, 0x08, 0x00, 0xff, 0x0f, 0x80, 0x08, 0x80, 0x00, 0x00, 0x80,
   0x08, 0x00, 0x00, 0x00, 0x00, 0x05, 0x00, 0x00, 0x00, 0x00, 0x05, 0x00,
   0x00, 0x00, 0x00, 0x05, 0x00, 0x00, 0x00, 0x00, 0x02, 0x00, 0x00, 0x00,
   0x00, 0x02, 0x00, 0x00, 0x00, 0x00, 0x00, 0x00, 0x00, 0x00, 0x00, 0x00,
   0x00, 0x00, 0x00, 0x00, 0x00, 0x00, 0x00, 0x00, 0x00, 0x00, 0x00, 0x00,
   0x00, 0x00, 0x00, 0x00, 0x00, 0x00, 0x00, 0x00, 0x00, 0x00, 0x00, 0x00,
   0x00, 0x00, 0x00, 0x00, 0x00, 0x00, 0x00, 0x00, 0x00, 0x00, 0x00, 0x00};
