#define brick160_width 160
#define brick160_height 160
static char brick160_bits[] = {
 0x00,0x0c,0x00,0xc0,0x00,0x00,0x0c,0x00,0xc0,0x00,0x00,0x0c,0x00,0xc0,0x00,
 0x00,0x0c,0x00,0xc0,0x00,0x00,0x0c,0x00,0xc0,0x00,0x00,0x0c,0x00,0xc0,0x00,
 0x00,0x0c,0x00,0xc0,0x00,0x00,0x0c,0x00,0xc0,0x00,0x00,0x0c,0x00,0xc0,0x00,
 0x00,0x0c,0x00,0xc0,0x00,0x00,0x0c,0x00,0xc0,0x00,0x00,0x0c,0x00,0xc0,0x00,
 0x00,0x0c,0x00,0xc0,0x00,0x00,0x0c,0x00,0xc0,0x00,0x00,0x0c,0x00,0xc0,0x00,
 0x00,0x0c,0x00,0xc0,0x00,0x00,0x0c,0x00,0xc0,0x00,0x00,0x0c,0x00,0xc0,0x00,
 0x00,0x0c,0x00,0xc0,0x00,0x00,0x0c,0x00,0xc0,0x00,0x00,0x0c,0x00,0xc0,0x00,
 0x00,0x0c,0x00,0xc0,0x00,0x00,0x0c,0x00,0xc0,0x00,0x00,0x0c,0x00,0xc0,0x00,
 0x00,0x0c,0x00,0xc0,0x00,0x00,0x0c,0x00,0xc0,0x00,0x00,0x0c,0x00,0xc0,0x00,
 0x00,0x0c,0x00,0xc0,0x00,0x00,0x0c,0x00,0xc0,0x00,0x00,0x0c,0x00,0xc0,0x00,
 0x00,0x0c,0x00,0xc0,0x00,0x00,0x0c,0x00,0xc0,0x00,0x00,0x0c,0x00,0xc0,0x00,
 0x00,0x0c,0x00,0xc0,0x00,0x00,0x0c,0x00,0xc0,0x00,0x00,0x0c,0x00,0xc0,0x00,
 0xff,0xff,0xff,0xff,0xff,0xff,0xff,0xff,0xff,0xff,0xff,0xff,0xff,0xff,0xff,
 0xff,0xff,0xff,0xff,0xff,0x03,0x00,0x30,0x00,0x00,0x03,0x00,0x30,0x00,0x00,
 0x03,0x00,0x30,0x00,0x00,0x03,0x00,0x30,0x00,0x00,0x03,0x00,0x30,0x00,0x00,
 0x03,0x00,0x30,0x00,0x00,0x03,0x00,0x30,0x00,0x00,0x03,0x00,0x30,0x00,0x00,
 0x03,0x00,0x30,0x00,0x00,0x03,0x00,0x30,0x00,0x00,0x03,0x00,0x30,0x00,0x00,
 0x03,0x00,0x30,0x00,0x00,0x03,0x00,0x30,0x00,0x00,0x03,0x00,0x30,0x00,0x00,
 0x03,0x00,0x30,0x00,0x00,0x03,0x00,0x30,0x00,0x00,0x03,0x00,0x30,0x00,0x00,
 0x03,0x00,0x30,0x00,0x00,0x03,0x00,0x30,0x00,0x00,0x03,0x00,0x30,0x00,0x00,
 0x03,0x00,0x30,0x00,0x00,0x03,0x00,0x30,0x00,0x00,0x03,0x00,0x30,0x00,0x00,
 0x03,0x00,0x30,0x00,0x00,0x03,0x00,0x30,0x00,0x00,0x03,0x00,0x30,0x00,0x00,
 0x03,0x00,0x30,0x00,0x00,0x03,0x00,0x30,0x00,0x00,0x03,0x00,0x30,0x00,0x00,
 0x03,0x00,0x30,0x00,0x00,0x03,0x00,0x30,0x00,0x00,0x03,0x00,0x30,0x00,0x00,
 0x03,0x00,0x30,0x00,0x00,0x03,0x00,0x30,0x00,0x00,0x03,0x00,0x30,0x00,0x00,
 0x03,0x00,0x30,0x00,0x00,0xff,0xff,0xff,0xff,0xff,0xff,0xff,0xff,0xff,0xff,
 0xff,0xff,0xff,0xff,0xff,0xff,0xff,0xff,0xff,0xff,0x00,0x0c,0x00,0xc0,0x00,
 0x00,0x0c,0x00,0xc0,0x00,0x00,0x0c,0x00,0xc0,0x00,0x00,0x0c,0x00,0xc0,0x00,
 0x00,0x0c,0x00,0xc0,0x00,0x00,0x0c,0x00,0xc0,0x00,0x00,0x0c,0x00,0xc0,0x00,
 0x00,0x0c,0x00,0xc0,0x00,0x00,0x0c,0x00,0xc0,0x00,0x00,0x0c,0x00,0xc0,0x00,
 0x00,0x0c,0x00,0xc0,0x00,0x00,0x0c,0x00,0xc0,0x00,0x00,0x0c,0x00,0xc0,0x00,
 0x00,0x0c,0x00,0xc0,0x00,0x00,0x0c,0x00,0xc0,0x00,0x00,0x0c,0x00,0xc0,0x00,
 0x00,0x0c,0x00,0xc0,0x00,0x00,0x0c,0x00,0xc0,0x00,0x00,0x0c,0x00,0xc0,0x00,
 0x00,0x0c,0x00,0xc0,0x00,0x00,0x0c,0x00,0xc0,0x00,0x00,0x0c,0x00,0xc0,0x00,
 0x00,0x0c,0x00,0xc0,0x00,0x00,0x0c,0x00,0xc0,0x00,0x00,0x0c,0x00,0xc0,0x00,
 0x00,0x0c,0x00,0xc0,0x00,0x00,0x0c,0x00,0xc0,0x00,0x00,0x0c,0x00,0xc0,0x00,
 0x00,0x0c,0x00,0xc0,0x00,0x00,0x0c,0x00,0xc0,0x00,0x00,0x0c,0x00,0xc0,0x00,
 0x00,0x0c,0x00,0xc0,0x00,0x00,0x0c,0x00,0xc0,0x00,0x00,0x0c,0x00,0xc0,0x00,
 0x00,0x0c,0x00,0xc0,0x00,0x00,0x0c,0x00,0xc0,0x00,0xff,0xff,0xff,0xff,0xff,
 0xff,0xff,0xff,0xff,0xff,0xff,0xff,0xff,0xff,0xff,0xff,0xff,0xff,0xff,0xff,
 0x03,0x00,0x30,0x00,0x00,0x03,0x00,0x30,0x00,0x00,0x03,0x00,0x30,0x00,0x00,
 0x03,0x00,0x30,0x00,0x00,0x03,0x00,0x30,0x00,0x00,0x03,0x00,0x30,0x00,0x00,
 0x03,0x00,0x30,0x00,0x00,0x03,0x00,0x30,0x00,0x00,0x03,0x00,0x30,0x00,0x00,
 0x03,0x00,0x30,0x00,0x00,0x03,0x00,0x30,0x00,0x00,0x03,0x00,0x30,0x00,0x00,
 0x03,0x00,0x30,0x00,0x00,0x03,0x00,0x30,0x00,0x00,0x03,0x00,0x30,0x00,0x00,
 0x03,0x00,0x30,0x00,0x00,0x03,0x00,0x30,0x00,0x00,0x03,0x00,0x30,0x00,0x00,
 0x03,0x00,0x30,0x00,0x00,0x03,0x00,0x30,0x00,0x00,0x03,0x00,0x30,0x00,0x00,
 0x03,0x00,0x30,0x00,0x00,0x03,0x00,0x30,0x00,0x00,0x03,0x00,0x30,0x00,0x00,
 0x03,0x00,0x30,0x00,0x00,0x03,0x00,0x30,0x00,0x00,0x03,0x00,0x30,0x00,0x00,
 0x03,0x00,0x30,0x00,0x00,0x03,0x00,0x30,0x00,0x00,0x03,0x00,0x30,0x00,0x00,
 0x03,0x00,0x30,0x00,0x00,0x03,0x00,0x30,0x00,0x00,0x03,0x00,0x30,0x00,0x00,
 0x03,0x00,0x30,0x00,0x00,0x03,0x00,0x30,0x00,0x00,0x03,0x00,0x30,0x00,0x00,
 0xff,0xff,0xff,0xff,0xff,0xff,0xff,0xff,0xff,0xff,0xff,0xff,0xff,0xff,0xff,
 0xff,0xff,0xff,0xff,0xff,0x00,0x0c,0x00,0xc0,0x00,0x00,0x0c,0x00,0xc0,0x00,
 0x00,0x0c,0x00,0xc0,0x00,0x00,0x0c,0x00,0xc0,0x00,0x00,0x0c,0x00,0xc0,0x00,
 0x00,0x0c,0x00,0xc0,0x00,0x00,0x0c,0x00,0xc0,0x00,0x00,0x0c,0x00,0xc0,0x00,
 0x00,0x0c,0x00,0xc0,0x00,0x00,0x0c,0x00,0xc0,0x00,0x00,0x0c,0x00,0xc0,0x00,
 0x00,0x0c,0x00,0xc0,0x00,0x00,0x0c,0x00,0xc0,0x00,0x00,0x0c,0x00,0xc0,0x00,
 0x00,0x0c,0x00,0xc0,0x00,0x00,0x0c,0x00,0xc0,0x00,0x00,0x0c,0x00,0xc0,0x00,
 0x00,0x0c,0x00,0xc0,0x00,0x00,0x0c,0x00,0xc0,0x00,0x00,0x0c,0x00,0xc0,0x00,
 0x00,0x0c,0x00,0xc0,0x00,0x00,0x0c,0x00,0xc0,0x00,0x00,0x0c,0x00,0xc0,0x00,
 0x00,0x0c,0x00,0xc0,0x00,0x00,0x0c,0x00,0xc0,0x00,0x00,0x0c,0x00,0xc0,0x00,
 0x00,0x0c,0x00,0xc0,0x00,0x00,0x0c,0x00,0xc0,0x00,0x00,0x0c,0x00,0xc0,0x00,
 0x00,0x0c,0x00,0xc0,0x00,0x00,0x0c,0x00,0xc0,0x00,0x00,0x0c,0x00,0xc0,0x00,
 0x00,0x0c,0x00,0xc0,0x00,0x00,0x0c,0x00,0xc0,0x00,0x00,0x0c,0x00,0xc0,0x00,
 0x00,0x0c,0x00,0xc0,0x00,0xff,0xff,0xff,0xff,0xff,0xff,0xff,0xff,0xff,0xff,
 0xff,0xff,0xff,0xff,0xff,0xff,0xff,0xff,0xff,0xff,0x03,0x00,0x30,0x00,0x00,
 0x03,0x00,0x30,0x00,0x00,0x03,0x00,0x30,0x00,0x00,0x03,0x00,0x30,0x00,0x00,
 0x03,0x00,0x30,0x00,0x00,0x03,0x00,0x30,0x00,0x00,0x03,0x00,0x30,0x00,0x00,
 0x03,0x00,0x30,0x00,0x00,0x03,0x00,0x30,0x00,0x00,0x03,0x00,0x30,0x00,0x00,
 0x03,0x00,0x30,0x00,0x00,0x03,0x00,0x30,0x00,0x00,0x03,0x00,0x30,0x00,0x00,
 0x03,0x00,0x30,0x00,0x00,0x03,0x00,0x30,0x00,0x00,0x03,0x00,0x30,0x00,0x00,
 0x03,0x00,0x30,0x00,0x00,0x03,0x00,0x30,0x00,0x00,0x03,0x00,0x30,0x00,0x00,
 0x03,0x00,0x30,0x00,0x00,0x03,0x00,0x30,0x00,0x00,0x03,0x00,0x30,0x00,0x00,
 0x03,0x00,0x30,0x00,0x00,0x03,0x00,0x30,0x00,0x00,0x03,0x00,0x30,0x00,0x00,
 0x03,0x00,0x30,0x00,0x00,0x03,0x00,0x30,0x00,0x00,0x03,0x00,0x30,0x00,0x00,
 0x03,0x00,0x30,0x00,0x00,0x03,0x00,0x30,0x00,0x00,0x03,0x00,0x30,0x00,0x00,
 0x03,0x00,0x30,0x00,0x00,0x03,0x00,0x30,0x00,0x00,0x03,0x00,0x30,0x00,0x00,
 0x03,0x00,0x30,0x00,0x00,0x03,0x00,0x30,0x00,0x00,0xff,0xff,0xff,0xff,0xff,
 0xff,0xff,0xff,0xff,0xff,0xff,0xff,0xff,0xff,0xff,0xff,0xff,0xff,0xff,0xff,
 0x00,0x0c,0x00,0xc0,0x00,0x00,0x0c,0x00,0xc0,0x00,0x00,0x0c,0x00,0xc0,0x00,
 0x00,0x0c,0x00,0xc0,0x00,0x00,0x0c,0x00,0xc0,0x00,0x00,0x0c,0x00,0xc0,0x00,
 0x00,0x0c,0x00,0xc0,0x00,0x00,0x0c,0x00,0xc0,0x00,0x00,0x0c,0x00,0xc0,0x00,
 0x00,0x0c,0x00,0xc0,0x00,0x00,0x0c,0x00,0xc0,0x00,0x00,0x0c,0x00,0xc0,0x00,
 0x00,0x0c,0x00,0xc0,0x00,0x00,0x0c,0x00,0xc0,0x00,0x00,0x0c,0x00,0xc0,0x00,
 0x00,0x0c,0x00,0xc0,0x00,0x00,0x0c,0x00,0xc0,0x00,0x00,0x0c,0x00,0xc0,0x00,
 0x00,0x0c,0x00,0xc0,0x00,0x00,0x0c,0x00,0xc0,0x00,0x00,0x0c,0x00,0xc0,0x00,
 0x00,0x0c,0x00,0xc0,0x00,0x00,0x0c,0x00,0xc0,0x00,0x00,0x0c,0x00,0xc0,0x00,
 0x00,0x0c,0x00,0xc0,0x00,0x00,0x0c,0x00,0xc0,0x00,0x00,0x0c,0x00,0xc0,0x00,
 0x00,0x0c,0x00,0xc0,0x00,0x00,0x0c,0x00,0xc0,0x00,0x00,0x0c,0x00,0xc0,0x00,
 0x00,0x0c,0x00,0xc0,0x00,0x00,0x0c,0x00,0xc0,0x00,0x00,0x0c,0x00,0xc0,0x00,
 0x00,0x0c,0x00,0xc0,0x00,0x00,0x0c,0x00,0xc0,0x00,0x00,0x0c,0x00,0xc0,0x00,
 0xff,0xff,0xff,0xff,0xff,0xff,0xff,0xff,0xff,0xff,0xff,0xff,0xff,0xff,0xff,
 0xff,0xff,0xff,0xff,0xff,0x03,0x00,0x30,0x00,0x00,0x03,0x00,0x30,0x00,0x00,
 0x03,0x00,0x30,0x00,0x00,0x03,0x00,0x30,0x00,0x00,0x03,0x00,0x30,0x00,0x00,
 0x03,0x00,0x30,0x00,0x00,0x03,0x00,0x30,0x00,0x00,0x03,0x00,0x30,0x00,0x00,
 0x03,0x00,0x30,0x00,0x00,0x03,0x00,0x30,0x00,0x00,0x03,0x00,0x30,0x00,0x00,
 0x03,0x00,0x30,0x00,0x00,0x03,0x00,0x30,0x00,0x00,0x03,0x00,0x30,0x00,0x00,
 0x03,0x00,0x30,0x00,0x00,0x03,0x00,0x30,0x00,0x00,0x03,0x00,0x30,0x00,0x00,
 0x03,0x00,0x30,0x00,0x00,0x03,0x00,0x30,0x00,0x00,0x03,0x00,0x30,0x00,0x00,
 0x03,0x00,0x30,0x00,0x00,0x03,0x00,0x30,0x00,0x00,0x03,0x00,0x30,0x00,0x00,
 0x03,0x00,0x30,0x00,0x00,0x03,0x00,0x30,0x00,0x00,0x03,0x00,0x30,0x00,0x00,
 0x03,0x00,0x30,0x00,0x00,0x03,0x00,0x30,0x00,0x00,0x03,0x00,0x30,0x00,0x00,
 0x03,0x00,0x30,0x00,0x00,0x03,0x00,0x30,0x00,0x00,0x03,0x00,0x30,0x00,0x00,
 0x03,0x00,0x30,0x00,0x00,0x03,0x00,0x30,0x00,0x00,0x03,0x00,0x30,0x00,0x00,
 0x03,0x00,0x30,0x00,0x00,0xff,0xff,0xff,0xff,0xff,0xff,0xff,0xff,0xff,0xff,
 0xff,0xff,0xff,0xff,0xff,0xff,0xff,0xff,0xff,0xff,0x00,0x0c,0x00,0xc0,0x00,
 0x00,0x0c,0x00,0xc0,0x00,0x00,0x0c,0x00,0xc0,0x00,0x00,0x0c,0x00,0xc0,0x00,
 0x00,0x0c,0x00,0xc0,0x00,0x00,0x0c,0x00,0xc0,0x00,0x00,0x0c,0x00,0xc0,0x00,
 0x00,0x0c,0x00,0xc0,0x00,0x00,0x0c,0x00,0xc0,0x00,0x00,0x0c,0x00,0xc0,0x00,
 0x00,0x0c,0x00,0xc0,0x00,0x00,0x0c,0x00,0xc0,0x00,0x00,0x0c,0x00,0xc0,0x00,
 0x00,0x0c,0x00,0xc0,0x00,0x00,0x0c,0x00,0xc0,0x00,0x00,0x0c,0x00,0xc0,0x00,
 0x00,0x0c,0x00,0xc0,0x00,0x00,0x0c,0x00,0xc0,0x00,0x00,0x0c,0x00,0xc0,0x00,
 0x00,0x0c,0x00,0xc0,0x00,0x00,0x0c,0x00,0xc0,0x00,0x00,0x0c,0x00,0xc0,0x00,
 0x00,0x0c,0x00,0xc0,0x00,0x00,0x0c,0x00,0xc0,0x00,0x00,0x0c,0x00,0xc0,0x00,
 0x00,0x0c,0x00,0xc0,0x00,0x00,0x0c,0x00,0xc0,0x00,0x00,0x0c,0x00,0xc0,0x00,
 0x00,0x0c,0x00,0xc0,0x00,0x00,0x0c,0x00,0xc0,0x00,0x00,0x0c,0x00,0xc0,0x00,
 0x00,0x0c,0x00,0xc0,0x00,0x00,0x0c,0x00,0xc0,0x00,0x00,0x0c,0x00,0xc0,0x00,
 0x00,0x0c,0x00,0xc0,0x00,0x00,0x0c,0x00,0xc0,0x00,0xff,0xff,0xff,0xff,0xff,
 0xff,0xff,0xff,0xff,0xff,0xff,0xff,0xff,0xff,0xff,0xff,0xff,0xff,0xff,0xff,
 0x03,0x00,0x30,0x00,0x00,0x03,0x00,0x30,0x00,0x00,0x03,0x00,0x30,0x00,0x00,
 0x03,0x00,0x30,0x00,0x00,0x03,0x00,0x30,0x00,0x00,0x03,0x00,0x30,0x00,0x00,
 0x03,0x00,0x30,0x00,0x00,0x03,0x00,0x30,0x00,0x00,0x03,0x00,0x30,0x00,0x00,
 0x03,0x00,0x30,0x00,0x00,0x03,0x00,0x30,0x00,0x00,0x03,0x00,0x30,0x00,0x00,
 0x03,0x00,0x30,0x00,0x00,0x03,0x00,0x30,0x00,0x00,0x03,0x00,0x30,0x00,0x00,
 0x03,0x00,0x30,0x00,0x00,0x03,0x00,0x30,0x00,0x00,0x03,0x00,0x30,0x00,0x00,
 0x03,0x00,0x30,0x00,0x00,0x03,0x00,0x30,0x00,0x00,0x03,0x00,0x30,0x00,0x00,
 0x03,0x00,0x30,0x00,0x00,0x03,0x00,0x30,0x00,0x00,0x03,0x00,0x30,0x00,0x00,
 0x03,0x00,0x30,0x00,0x00,0x03,0x00,0x30,0x00,0x00,0x03,0x00,0x30,0x00,0x00,
 0x03,0x00,0x30,0x00,0x00,0x03,0x00,0x30,0x00,0x00,0x03,0x00,0x30,0x00,0x00,
 0x03,0x00,0x30,0x00,0x00,0x03,0x00,0x30,0x00,0x00,0x03,0x00,0x30,0x00,0x00,
 0x03,0x00,0x30,0x00,0x00,0x03,0x00,0x30,0x00,0x00,0x03,0x00,0x30,0x00,0x00,
 0xff,0xff,0xff,0xff,0xff,0xff,0xff,0xff,0xff,0xff,0xff,0xff,0xff,0xff,0xff,
 0xff,0xff,0xff,0xff,0xff,0x00,0x0c,0x00,0xc0,0x00,0x00,0x0c,0x00,0xc0,0x00,
 0x00,0x0c,0x00,0xc0,0x00,0x00,0x0c,0x00,0xc0,0x00,0x00,0x0c,0x00,0xc0,0x00,
 0x00,0x0c,0x00,0xc0,0x00,0x00,0x0c,0x00,0xc0,0x00,0x00,0x0c,0x00,0xc0,0x00,
 0x00,0x0c,0x00,0xc0,0x00,0x00,0x0c,0x00,0xc0,0x00,0x00,0x0c,0x00,0xc0,0x00,
 0x00,0x0c,0x00,0xc0,0x00,0x00,0x0c,0x00,0xc0,0x00,0x00,0x0c,0x00,0xc0,0x00,
 0x00,0x0c,0x00,0xc0,0x00,0x00,0x0c,0x00,0xc0,0x00,0x00,0x0c,0x00,0xc0,0x00,
 0x00,0x0c,0x00,0xc0,0x00,0x00,0x0c,0x00,0xc0,0x00,0x00,0x0c,0x00,0xc0,0x00,
 0x00,0x0c,0x00,0xc0,0x00,0x00,0x0c,0x00,0xc0,0x00,0x00,0x0c,0x00,0xc0,0x00,
 0x00,0x0c,0x00,0xc0,0x00,0x00,0x0c,0x00,0xc0,0x00,0x00,0x0c,0x00,0xc0,0x00,
 0x00,0x0c,0x00,0xc0,0x00,0x00,0x0c,0x00,0xc0,0x00,0x00,0x0c,0x00,0xc0,0x00,
 0x00,0x0c,0x00,0xc0,0x00,0x00,0x0c,0x00,0xc0,0x00,0x00,0x0c,0x00,0xc0,0x00,
 0x00,0x0c,0x00,0xc0,0x00,0x00,0x0c,0x00,0xc0,0x00,0x00,0x0c,0x00,0xc0,0x00,
 0x00,0x0c,0x00,0xc0,0x00,0xff,0xff,0xff,0xff,0xff,0xff,0xff,0xff,0xff,0xff,
 0xff,0xff,0xff,0xff,0xff,0xff,0xff,0xff,0xff,0xff,0x03,0x00,0x30,0x00,0x00,
 0x03,0x00,0x30,0x00,0x00,0x03,0x00,0x30,0x00,0x00,0x03,0x00,0x30,0x00,0x00,
 0x03,0x00,0x30,0x00,0x00,0x03,0x00,0x30,0x00,0x00,0x03,0x00,0x30,0x00,0x00,
 0x03,0x00,0x30,0x00,0x00,0x03,0x00,0x30,0x00,0x00,0x03,0x00,0x30,0x00,0x00,
 0x03,0x00,0x30,0x00,0x00,0x03,0x00,0x30,0x00,0x00,0x03,0x00,0x30,0x00,0x00,
 0x03,0x00,0x30,0x00,0x00,0x03,0x00,0x30,0x00,0x00,0x03,0x00,0x30,0x00,0x00,
 0x03,0x00,0x30,0x00,0x00,0x03,0x00,0x30,0x00,0x00,0x03,0x00,0x30,0x00,0x00,
 0x03,0x00,0x30,0x00,0x00,0x03,0x00,0x30,0x00,0x00,0x03,0x00,0x30,0x00,0x00,
 0x03,0x00,0x30,0x00,0x00,0x03,0x00,0x30,0x00,0x00,0x03,0x00,0x30,0x00,0x00,
 0x03,0x00,0x30,0x00,0x00,0x03,0x00,0x30,0x00,0x00,0x03,0x00,0x30,0x00,0x00,
 0x03,0x00,0x30,0x00,0x00,0x03,0x00,0x30,0x00,0x00,0x03,0x00,0x30,0x00,0x00,
 0x03,0x00,0x30,0x00,0x00,0x03,0x00,0x30,0x00,0x00,0x03,0x00,0x30,0x00,0x00,
 0x03,0x00,0x30,0x00,0x00,0x03,0x00,0x30,0x00,0x00,0xff,0xff,0xff,0xff,0xff,
 0xff,0xff,0xff,0xff,0xff,0xff,0xff,0xff,0xff,0xff,0xff,0xff,0xff,0xff,0xff,
 0x00,0x0c,0x00,0xc0,0x00,0x00,0x0c,0x00,0xc0,0x00,0x00,0x0c,0x00,0xc0,0x00,
 0x00,0x0c,0x00,0xc0,0x00,0x00,0x0c,0x00,0xc0,0x00,0x00,0x0c,0x00,0xc0,0x00,
 0x00,0x0c,0x00,0xc0,0x00,0x00,0x0c,0x00,0xc0,0x00,0x00,0x0c,0x00,0xc0,0x00,
 0x00,0x0c,0x00,0xc0,0x00,0x00,0x0c,0x00,0xc0,0x00,0x00,0x0c,0x00,0xc0,0x00,
 0x00,0x0c,0x00,0xc0,0x00,0x00,0x0c,0x00,0xc0,0x00,0x00,0x0c,0x00,0xc0,0x00,
 0x00,0x0c,0x00,0xc0,0x00,0x00,0x0c,0x00,0xc0,0x00,0x00,0x0c,0x00,0xc0,0x00,
 0x00,0x0c,0x00,0xc0,0x00,0x00,0x0c,0x00,0xc0,0x00,0x00,0x0c,0x00,0xc0,0x00,
 0x00,0x0c,0x00,0xc0,0x00,0x00,0x0c,0x00,0xc0,0x00,0x00,0x0c,0x00,0xc0,0x00,
 0x00,0x0c,0x00,0xc0,0x00,0x00,0x0c,0x00,0xc0,0x00,0x00,0x0c,0x00,0xc0,0x00,
 0x00,0x0c,0x00,0xc0,0x00,0x00,0x0c,0x00,0xc0,0x00,0x00,0x0c,0x00,0xc0,0x00,
 0x00,0x0c,0x00,0xc0,0x00,0x00,0x0c,0x00,0xc0,0x00,0x00,0x0c,0x00,0xc0,0x00,
 0x00,0x0c,0x00,0xc0,0x00,0x00,0x0c,0x00,0xc0,0x00,0x00,0x0c,0x00,0xc0,0x00,
 0xff,0xff,0xff,0xff,0xff,0xff,0xff,0xff,0xff,0xff,0xff,0xff,0xff,0xff,0xff,
 0xff,0xff,0xff,0xff,0xff,0x03,0x00,0x30,0x00,0x00,0x03,0x00,0x30,0x00,0x00,
 0x03,0x00,0x30,0x00,0x00,0x03,0x00,0x30,0x00,0x00,0x03,0x00,0x30,0x00,0x00,
 0x03,0x00,0x30,0x00,0x00,0x03,0x00,0x30,0x00,0x00,0x03,0x00,0x30,0x00,0x00,
 0x03,0x00,0x30,0x00,0x00,0x03,0x00,0x30,0x00,0x00,0x03,0x00,0x30,0x00,0x00,
 0x03,0x00,0x30,0x00,0x00,0x03,0x00,0x30,0x00,0x00,0x03,0x00,0x30,0x00,0x00,
 0x03,0x00,0x30,0x00,0x00,0x03,0x00,0x30,0x00,0x00,0x03,0x00,0x30,0x00,0x00,
 0x03,0x00,0x30,0x00,0x00,0x03,0x00,0x30,0x00,0x00,0x03,0x00,0x30,0x00,0x00,
 0x03,0x00,0x30,0x00,0x00,0x03,0x00,0x30,0x00,0x00,0x03,0x00,0x30,0x00,0x00,
 0x03,0x00,0x30,0x00,0x00,0x03,0x00,0x30,0x00,0x00,0x03,0x00,0x30,0x00,0x00,
 0x03,0x00,0x30,0x00,0x00,0x03,0x00,0x30,0x00,0x00,0x03,0x00,0x30,0x00,0x00,
 0x03,0x00,0x30,0x00,0x00,0x03,0x00,0x30,0x00,0x00,0x03,0x00,0x30,0x00,0x00,
 0x03,0x00,0x30,0x00,0x00,0x03,0x00,0x30,0x00,0x00,0x03,0x00,0x30,0x00,0x00,
 0x03,0x00,0x30,0x00,0x00,0xff,0xff,0xff,0xff,0xff,0xff,0xff,0xff,0xff,0xff,
 0xff,0xff,0xff,0xff,0xff,0xff,0xff,0xff,0xff,0xff,0x00,0x0c,0x00,0xc0,0x00,
 0x00,0x0c,0x00,0xc0,0x00,0x00,0x0c,0x00,0xc0,0x00,0x00,0x0c,0x00,0xc0,0x00,
 0x00,0x0c,0x00,0xc0,0x00,0x00,0x0c,0x00,0xc0,0x00,0x00,0x0c,0x00,0xc0,0x00,
 0x00,0x0c,0x00,0xc0,0x00,0x00,0x0c,0x00,0xc0,0x00,0x00,0x0c,0x00,0xc0,0x00,
 0x00,0x0c,0x00,0xc0,0x00,0x00,0x0c,0x00,0xc0,0x00,0x00,0x0c,0x00,0xc0,0x00,
 0x00,0x0c,0x00,0xc0,0x00,0x00,0x0c,0x00,0xc0,0x00,0x00,0x0c,0x00,0xc0,0x00,
 0x00,0x0c,0x00,0xc0,0x00,0x00,0x0c,0x00,0xc0,0x00,0x00,0x0c,0x00,0xc0,0x00,
 0x00,0x0c,0x00,0xc0,0x00,0x00,0x0c,0x00,0xc0,0x00,0x00,0x0c,0x00,0xc0,0x00,
 0x00,0x0c,0x00,0xc0,0x00,0x00,0x0c,0x00,0xc0,0x00,0x00,0x0c,0x00,0xc0,0x00,
 0x00,0x0c,0x00,0xc0,0x00,0x00,0x0c,0x00,0xc0,0x00,0x00,0x0c,0x00,0xc0,0x00,
 0x00,0x0c,0x00,0xc0,0x00,0x00,0x0c,0x00,0xc0,0x00,0x00,0x0c,0x00,0xc0,0x00,
 0x00,0x0c,0x00,0xc0,0x00,0x00,0x0c,0x00,0xc0,0x00,0x00,0x0c,0x00,0xc0,0x00,
 0x00,0x0c,0x00,0xc0,0x00,0x00,0x0c,0x00,0xc0,0x00,0xff,0xff,0xff,0xff,0xff,
 0xff,0xff,0xff,0xff,0xff,0xff,0xff,0xff,0xff,0xff,0xff,0xff,0xff,0xff,0xff,
 0x03,0x00,0x30,0x00,0x00,0x03,0x00,0x30,0x00,0x00,0x03,0x00,0x30,0x00,0x00,
 0x03,0x00,0x30,0x00,0x00,0x03,0x00,0x30,0x00,0x00,0x03,0x00,0x30,0x00,0x00,
 0x03,0x00,0x30,0x00,0x00,0x03,0x00,0x30,0x00,0x00,0x03,0x00,0x30,0x00,0x00,
 0x03,0x00,0x30,0x00,0x00,0x03,0x00,0x30,0x00,0x00,0x03,0x00,0x30,0x00,0x00,
 0x03,0x00,0x30,0x00,0x00,0x03,0x00,0x30,0x00,0x00,0x03,0x00,0x30,0x00,0x00,
 0x03,0x00,0x30,0x00,0x00,0x03,0x00,0x30,0x00,0x00,0x03,0x00,0x30,0x00,0x00,
 0x03,0x00,0x30,0x00,0x00,0x03,0x00,0x30,0x00,0x00,0x03,0x00,0x30,0x00,0x00,
 0x03,0x00,0x30,0x00,0x00,0x03,0x00,0x30,0x00,0x00,0x03,0x00,0x30,0x00,0x00,
 0x03,0x00,0x30,0x00,0x00,0x03,0x00,0x30,0x00,0x00,0x03,0x00,0x30,0x00,0x00,
 0x03,0x00,0x30,0x00,0x00,0x03,0x00,0x30,0x00,0x00,0x03,0x00,0x30,0x00,0x00,
 0x03,0x00,0x30,0x00,0x00,0x03,0x00,0x30,0x00,0x00,0x03,0x00,0x30,0x00,0x00,
 0x03,0x00,0x30,0x00,0x00,0x03,0x00,0x30,0x00,0x00,0x03,0x00,0x30,0x00,0x00,
 0xff,0xff,0xff,0xff,0xff,0xff,0xff,0xff,0xff,0xff,0xff,0xff,0xff,0xff,0xff,
 0xff,0xff,0xff,0xff,0xff};
