#define m66.xbm_width 64
#define m66.xbm_height 64
static char m66.xbm_bits[] = {
   0x00, 0x00, 0x00, 0xff, 0x00, 0x40, 0x00, 0x00, 0x00, 0x00, 0x00, 0x01,
   0x00, 0x20, 0x00, 0x00, 0x00, 0x00, 0x00, 0x02, 0x00, 0x00, 0x00, 0x00,
   0x30, 0x00, 0x00, 0x02, 0x00, 0x00, 0x00, 0x00, 0x0c, 0x00, 0x00, 0x04,
   0x00, 0x00, 0x00, 0x00, 0x03, 0x00, 0x00, 0x04, 0x00, 0x00, 0x00, 0xc0,
   0x00, 0x80, 0x00, 0x08, 0x00, 0x10, 0x20, 0x80, 0x00, 0x80, 0x00, 0x08,
   0x00, 0x20, 0x10, 0x00, 0x03, 0x40, 0x00, 0x00, 0x00, 0x20, 0x08, 0x00,
   0x0c, 0x40, 0x00, 0x00, 0x00, 0x40, 0x04, 0x00, 0x30, 0x20, 0x00, 0x00,
   0x00, 0x40, 0x04, 0x00, 0x00, 0x20, 0x00, 0x00, 0x00, 0x80, 0x02, 0x00,
   0x00, 0x20, 0x0f, 0x06, 0x00, 0x80, 0x03, 0x00, 0x00, 0xf0, 0x00, 0x18,
   0x00, 0x00, 0x01, 0x00, 0x00, 0x00, 0x00, 0x60, 0x00, 0x00, 0x00, 0x00,
   0x00, 0x00, 0x00, 0x80, 0x01, 0x00, 0x00, 0x00, 0x00, 0x00, 0x00, 0x80,
   0x00, 0x18, 0x00, 0x00, 0x00, 0x00, 0x00, 0x60, 0x00, 0x06, 0x00, 0x00,
   0x00, 0x00, 0x00, 0x18, 0x00, 0x01, 0x08, 0x10, 0x30, 0x00, 0x00, 0x06,
   0xc0, 0x00, 0x10, 0x08, 0xc0, 0x1b, 0x00, 0x00, 0x30, 0x00, 0x10, 0x08,
   0x00, 0x1c, 0x00, 0x00, 0xc0, 0x00, 0x20, 0x04, 0x00, 0x08, 0x00, 0x00,
   0x00, 0x03, 0x20, 0x02, 0x00, 0x04, 0x00, 0x00, 0x00, 0x0c, 0x40, 0x01,
   0x00, 0x02, 0x00, 0x00, 0x00, 0x10, 0x40, 0x01, 0x00, 0x02, 0x00, 0x00,
   0x00, 0x00, 0x80, 0x01, 0x00, 0x01, 0x00, 0x02, 0x00, 0x00, 0x80, 0x00,
   0x80, 0x00, 0x00, 0x04, 0x00, 0x00, 0x00, 0x00, 0x00, 0x00, 0x00, 0x04,
   0x00, 0x00, 0x00, 0x00, 0x00, 0x00, 0x00, 0x08, 0x10, 0x00, 0x00, 0x00,
   0x00, 0x00, 0x00, 0x08, 0x10, 0x10, 0x00, 0x00, 0x00, 0x20, 0x00, 0x10,
   0x20, 0x08, 0x00, 0x00, 0x00, 0x20, 0x00, 0x10, 0x20, 0x04, 0x00, 0x00,
   0x00, 0x20, 0x00, 0x3e, 0x20, 0x02, 0x00, 0x00, 0x00, 0x20, 0xf0, 0x01,
   0x40, 0x01, 0x00, 0x00, 0x40, 0x10, 0x00, 0x00, 0xc0, 0x00, 0x80, 0x0f,
   0x80, 0x11, 0x00, 0x00, 0x40, 0x00, 0x78, 0x00, 0x00, 0x16, 0x00, 0x00,
   0x00, 0x00, 0x10, 0x00, 0x00, 0x18, 0x00, 0x00, 0x00, 0x00, 0x10, 0x00,
   0x01, 0x00, 0x00, 0x00, 0x00, 0x00, 0x20, 0x00, 0x01, 0x00, 0x00, 0x70,
   0x00, 0x00, 0x40, 0x00, 0x01, 0x00, 0x00, 0x4f, 0x00, 0x00, 0x80, 0x00,
   0x01, 0x00, 0xc0, 0x40, 0x00, 0x00, 0x00, 0x01, 0x01, 0x80, 0x00, 0x20,
   0x00, 0x80, 0x01, 0x02, 0xc1, 0x40, 0x00, 0x20, 0x00, 0x40, 0x02, 0x00,
   0x31, 0x40, 0x00, 0x20, 0x00, 0x20, 0x02, 0x00, 0x0d, 0x20, 0x00, 0x20,
   0x00, 0x10, 0x04, 0x00, 0x03, 0x20, 0x00, 0x10, 0x00, 0x10, 0x04, 0x00,
   0x00, 0x10, 0x00, 0x10, 0x00, 0x08, 0x04, 0x00, 0x00, 0xf8, 0x07, 0x00,
   0x00, 0x04, 0x08, 0x00, 0x00, 0x00, 0x00, 0x00, 0x10, 0x00, 0x08, 0x00,
   0x00, 0x00, 0x00, 0x00, 0x0c, 0x00, 0x00, 0x00, 0x00, 0x00, 0x00, 0x00,
   0x02, 0x00, 0x00, 0x00, 0x00, 0x00, 0x00, 0x00, 0x01, 0x00, 0x00, 0x00,
   0x00, 0x80, 0x00, 0xc0, 0x00, 0x00, 0x00, 0x00, 0x00, 0x00, 0x03, 0x60,
   0x00, 0x00, 0x00, 0x00, 0x07, 0x00, 0x0c, 0x80, 0x01, 0x00, 0x00, 0xfe,
   0x06, 0x00, 0x10, 0x00, 0x0e, 0x00, 0x00, 0x00, 0x02, 0x00, 0xe0, 0x00,
   0x30, 0x80, 0x01, 0x00, 0x02, 0x00, 0x40, 0x00, 0x00, 0x78, 0x01, 0x00,
   0x01, 0x00, 0x30, 0x00, 0x00, 0x86, 0x00, 0x80, 0x00, 0x00, 0x08, 0x00,
   0x00, 0x80, 0x00, 0x40, 0x00, 0x00, 0x06, 0x00, 0x00, 0x40, 0x00, 0x20,
   0x00, 0x00, 0x01, 0x00, 0x00, 0x40, 0x00, 0x10};
