#define m236_width 24
#define m236_height 24
static char m236_bits[] = {
 0x60,0x00,0x00,0x60,0x00,0x00,0x60,0x00,0x00,0x60,0x00,0x00,0x60,0x00,0x00,
 0xff,0x0f,0x00,0xff,0x0f,0x00,0x60,0x00,0x00,0x60,0x00,0x00,0x60,0x00,0x00,
 0x60,0x00,0x00,0x60,0x00,0x00,0x00,0x00,0x06,0x00,0x00,0x06,0x00,0x00,0x06,
 0x00,0x00,0x06,0x00,0x00,0x06,0x00,0xf0,0xff,0x00,0xf0,0xff,0x00,0x00,0x06,
 0x00,0x00,0x06,0x00,0x00,0x06,0x00,0x00,0x06,0x00,0x00,0x06};
