#define sand2_width 128
#define sand2_height 128
static char sand2_bits[] = {
 0x00,0xf0,0x00,0x00,0x00,0x00,0x00,0x00,0x08,0x00,0x00,0x00,0x70,0x00,0x00,
 0x00,0x00,0xf0,0x00,0x00,0x70,0x00,0x00,0x07,0x1e,0x40,0x00,0x00,0x70,0x80,
 0x00,0x0e,0x00,0xc0,0x00,0x00,0xf0,0x00,0x80,0x0f,0x1e,0xe0,0x01,0x1c,0x70,
 0xc0,0x07,0x1e,0x00,0x00,0x00,0x10,0xf0,0x00,0x00,0x02,0x1e,0xe0,0x00,0x1c,
 0x00,0xc0,0x07,0x1a,0x00,0x00,0x00,0x3c,0x60,0x00,0x00,0x00,0x0c,0x00,0x00,
 0x00,0x00,0x80,0x03,0x00,0x80,0x00,0x00,0x3c,0x00,0x00,0x00,0x00,0x00,0x00,
 0x00,0x00,0x00,0x80,0x00,0x00,0xe0,0x03,0x0e,0x3c,0x00,0x00,0x0a,0x00,0x00,
 0x00,0x00,0x00,0x00,0x00,0x00,0x00,0xc0,0x03,0x1f,0x08,0x00,0x00,0x0f,0x00,
 0x00,0x00,0x00,0x00,0x30,0x00,0x00,0x00,0x40,0x81,0x1f,0x00,0x00,0x00,0x0f,
 0x00,0x00,0x00,0x00,0x00,0x78,0x00,0xe0,0x00,0x00,0x00,0x1f,0x00,0x00,0x00,
 0x1f,0x00,0x07,0x0e,0x00,0x00,0xf8,0x00,0xf0,0x00,0x00,0x00,0x04,0x00,0x00,
 0x00,0x04,0x80,0x0f,0x1f,0x00,0x00,0x30,0x40,0xe0,0x00,0x00,0x00,0x00,0x00,
 0x00,0x00,0x00,0x06,0x07,0x0c,0x00,0x00,0x00,0x60,0x00,0x00,0x00,0x00,0x00,
 0x00,0x00,0x00,0x00,0x0f,0x00,0x00,0x00,0x00,0x00,0xe0,0x00,0x70,0x0e,0x00,
 0x00,0x00,0x00,0x00,0x00,0x1f,0x00,0x00,0x00,0x00,0x00,0xe0,0x00,0x78,0x0f,
 0x00,0x00,0xc0,0x03,0x00,0x00,0x07,0x00,0x00,0x00,0x00,0x00,0x00,0x00,0x70,
 0x06,0x0a,0x00,0xe0,0x03,0x00,0x00,0x04,0x00,0x00,0x00,0x00,0x00,0x00,0x00,
 0x30,0x00,0x0e,0x00,0xc0,0x03,0x00,0x00,0x00,0x00,0x00,0x00,0x00,0x00,0x00,
 0x00,0x00,0x00,0x1f,0x78,0xc0,0x01,0x00,0x00,0x00,0x00,0xc0,0x00,0x00,0x00,
 0x00,0x60,0x00,0x00,0x1f,0xf8,0x00,0x00,0x00,0x00,0x00,0x00,0xe0,0x01,0x00,
 0x00,0x00,0xe0,0x00,0x00,0x04,0x78,0x00,0x00,0x00,0x00,0x00,0x1e,0xe0,0x03,
 0x00,0x00,0x00,0xf0,0x00,0x00,0x00,0x00,0x00,0x00,0x00,0x00,0x00,0x1e,0xc0,
 0x00,0x00,0x00,0x00,0xe0,0x00,0x00,0x00,0x00,0x00,0x00,0x00,0x00,0x00,0x1e,
 0x00,0x00,0x07,0x00,0x00,0xe0,0x00,0x00,0x00,0x00,0x00,0x80,0x01,0x00,0x00,
 0x00,0x00,0x00,0x07,0x00,0x00,0x00,0x30,0x00,0x00,0x00,0x00,0xe0,0x03,0x00,
 0x00,0x00,0x00,0x00,0x07,0x00,0x00,0x00,0x70,0x00,0x00,0x00,0x00,0xc0,0x03,
 0x00,0x00,0x00,0x40,0x00,0x00,0x38,0x00,0x00,0x30,0x00,0x00,0x00,0x00,0x80,
 0x00,0x00,0x00,0x00,0xc0,0x01,0x00,0x3c,0x00,0x00,0x00,0x00,0x00,0x1c,0x00,
 0x00,0x00,0x00,0x00,0x00,0xc0,0x03,0x00,0x10,0x00,0x00,0x00,0x00,0x00,0x1c,
 0x00,0x00,0x00,0x00,0x00,0x00,0xc0,0x01,0x00,0x00,0x00,0x00,0x00,0x00,0x00,
 0x1e,0xf0,0x00,0x00,0x3c,0xe0,0x01,0x00,0x00,0x00,0x00,0x00,0xc0,0x03,0x00,
 0x00,0x10,0xf0,0x00,0x00,0x3c,0xe0,0x81,0x01,0x00,0x04,0x00,0x00,0xc0,0x03,
 0x00,0x00,0x00,0xf0,0x00,0x00,0x3c,0xe0,0x81,0x03,0x00,0x0f,0x00,0x00,0xc0,
 0x03,0x00,0x00,0x00,0xf0,0x80,0x00,0x08,0x40,0xc0,0x07,0x00,0x1f,0x00,0x20,
 0x80,0x01,0x00,0x00,0x00,0x00,0xe0,0x01,0x00,0x00,0x00,0x03,0x00,0x0f,0x00,
 0x70,0x00,0x00,0x00,0x00,0x00,0x00,0xe0,0x01,0x00,0x00,0x00,0x00,0x00,0x00,
 0x00,0x70,0x00,0x00,0x00,0x00,0x00,0x00,0x00,0x00,0x00,0x00,0x00,0x00,0x01,
 0x00,0x08,0x40,0x00,0x60,0x00,0x00,0x00,0x00,0x00,0x00,0x00,0x00,0x00,0xc0,
 0x03,0x00,0x1c,0x00,0x00,0x70,0x1c,0x00,0x00,0x00,0x00,0x00,0x00,0x1c,0x00,
 0xc0,0x03,0x00,0x3e,0x00,0x00,0x70,0x1e,0x00,0x00,0x00,0x00,0x00,0x03,0x1c,
 0x00,0x00,0x01,0x00,0x0c,0x00,0x00,0x40,0x3c,0x00,0x00,0x00,0x00,0x80,0x07,
 0x3e,0x00,0x00,0x00,0x00,0x00,0x00,0x10,0x00,0x1c,0x00,0x00,0x00,0x00,0x80,
 0x07,0x08,0x00,0x00,0x00,0x00,0x00,0x00,0x3c,0x00,0x00,0x00,0x00,0x00,0x00,
 0x80,0x03,0x00,0x00,0x00,0x00,0x0c,0x00,0x00,0x7c,0x00,0x00,0x00,0x00,0x00,
 0x00,0x00,0x00,0x00,0x00,0x00,0x00,0x1e,0x00,0x00,0x3c,0x00,0x00,0x00,0x00,
 0x00,0x00,0x00,0x00,0x00,0x00,0x00,0x00,0x1e,0x00,0x00,0x00,0x00,0x00,0x00,
 0x00,0x00,0x00,0x00,0x00,0x00,0x00,0x00,0x00,0x00,0xc0,0x01,0x00,0x00,0x00,
 0x1e,0x00,0x00,0x00,0x00,0x00,0x00,0x00,0x00,0x00,0x00,0xc0,0x03,0x00,0x00,
 0x00,0x1e,0x40,0x00,0x00,0x00,0x00,0x00,0x00,0x00,0x00,0x00,0xc0,0x03,0x00,
 0x00,0x00,0x1e,0xe0,0x01,0x00,0x00,0x60,0x00,0x00,0x00,0x1e,0x00,0x80,0x01,
 0x00,0x08,0x00,0x0c,0xf0,0x01,0x00,0x00,0xe0,0x00,0x00,0x00,0x1f,0x00,0x00,
 0x00,0x00,0x1e,0x0e,0x00,0xe0,0x00,0x00,0xf8,0xe0,0x00,0x00,0x00,0x04,0x00,
 0x00,0x00,0x00,0x3e,0x0e,0x00,0x00,0x00,0x00,0x78,0xe0,0x00,0x00,0x00,0x00,
 0x00,0x00,0x00,0x00,0x1e,0x0c,0x00,0x00,0x00,0x0f,0x78,0x00,0x00,0x00,0x04,
 0x00,0xf0,0x00,0x00,0x00,0x04,0x00,0x00,0x00,0x80,0x07,0x00,0x00,0x00,0x00,
 0x0f,0x00,0xf0,0x01,0x00,0x00,0x00,0x00,0x00,0x00,0x00,0x07,0x00,0x00,0x00,
 0x00,0x0f,0x00,0x60,0x00,0x00,0x00,0x00,0xc0,0x03,0x00,0x00,0x00,0x00,0x00,
 0x00,0x00,0x04,0x00,0x00,0x00,0x00,0x00,0x00,0xc0,0x03,0x18,0x00,0x00,0x00,
 0x00,0x00,0x00,0x00,0x00,0x00,0x00,0x00,0x00,0x00,0xc0,0x07,0x3e,0x00,0x00,
 0x00,0x00,0x00,0x00,0x00,0x00,0x00,0x00,0x00,0x00,0x00,0xc0,0x07,0x3e,0x00,
 0x00,0x00,0x00,0x00,0x00,0x00,0x00,0x00,0x00,0x00,0x00,0x00,0x00,0x01,0x18,
 0x00,0x00,0x1e,0x00,0x00,0x00,0x00,0x3c,0x00,0x00,0x00,0x00,0x00,0x00,0x00,
 0x00,0x00,0x00,0x3e,0x00,0x00,0x06,0x00,0x3c,0x00,0x00,0x00,0x40,0x00,0x00,
 0x00,0x00,0x00,0x00,0x1e,0x00,0x00,0x1f,0x00,0x3c,0x00,0x00,0x00,0xf0,0x00,
 0x00,0x00,0x00,0xc0,0x03,0x0c,0x00,0x80,0x1f,0x00,0x10,0x00,0x00,0x00,0xf0,
 0x01,0x00,0x00,0x00,0xc0,0x03,0x00,0x00,0x00,0x06,0x00,0x00,0x00,0x00,0x00,
 0x60,0x00,0x00,0x00,0x00,0xc0,0x07,0x00,0x00,0x00,0x00,0x00,0x00,0x00,0x00,
 0x00,0x00,0x00,0x00,0x00,0x00,0xc0,0x03,0x00,0x00,0x00,0x00,0x00,0x00,0x00,
 0x00,0x00,0x00,0x00,0x00,0x70,0x40,0x00,0x00,0x00,0x00,0x00,0x00,0x0e,0x00,
 0x00,0x00,0x3c,0x00,0x00,0x00,0xf0,0xe0,0x01,0x00,0x00,0x00,0x00,0x00,0x1e,
 0x00,0x00,0x00,0x3c,0x00,0x00,0x00,0xe0,0xe0,0x03,0x00,0x00,0x00,0x00,0x00,
 0x1e,0x00,0x00,0x00,0x3c,0x00,0x1e,0x38,0x60,0xe0,0x01,0x00,0x00,0x00,0x08,
 0x00,0x1e,0x00,0x00,0x00,0x08,0x00,0x1a,0x38,0x00,0x00,0x00,0x00,0x00,0x00,
 0x1c,0x00,0x04,0x08,0x00,0x00,0x00,0x00,0x3e,0x3c,0x00,0x00,0x00,0xe0,0x00,
 0x00,0x3e,0x00,0x00,0x3c,0x00,0x0e,0x00,0x00,0x1c,0x18,0x00,0x00,0x00,0xe0,
 0x01,0x00,0x08,0x00,0x00,0x3c,0x00,0x0e,0x00,0x02,0x08,0x00,0x00,0x00,0x00,
 0xe0,0x01,0x00,0x00,0x00,0x00,0x00,0x00,0x00,0x00,0x1f,0x00,0x00,0x00,0x00,
 0x40,0xc0,0x00,0x00,0x00,0x00,0x00,0x00,0x00,0x00,0x00,0x1f,0x00,0x00,0x00,
 0x00,0xf0,0x00,0x00,0x00,0x00,0x00,0x00,0x00,0x00,0x00,0x00,0x0e,0x00,0x00,
 0x02,0x00,0xf0,0x00,0x00,0x00,0x00,0x00,0x00,0x00,0x00,0x00,0x00,0x02,0x00,
 0x80,0x0f,0x00,0xf0,0x00,0x00,0x28,0x00,0x1c,0x00,0x00,0x00,0x00,0x00,0x00,
 0x00,0x00,0x0f,0x00,0x20,0x00,0x00,0x3c,0x00,0x3e,0x00,0x00,0x00,0xc0,0x00,
 0x00,0x00,0x00,0x05,0x00,0x00,0x00,0x00,0x3c,0x00,0x1c,0x00,0xc0,0x07,0xe0,
 0x01,0x00,0x00,0x00,0x00,0x00,0x00,0x00,0x06,0x7c,0x00,0x00,0x00,0xc0,0x07,
 0xe0,0x03,0x00,0x00,0x00,0x00,0x00,0x00,0x00,0x1f,0x10,0x00,0x00,0x00,0x80,
 0x03,0xc0,0x00,0x00,0x00,0x00,0x00,0x00,0x00,0x00,0x1f,0x00,0x00,0x00,0x00,
 0x00,0x00,0x00,0x00,0x00,0x00,0x00,0x00,0x00,0x00,0x00,0x0f,0x00,0x00,0x00,
 0x00,0x00,0x00,0x00,0x00,0x00,0x00,0x00,0x00,0x00,0x00,0x00,0x00,0x00,0x00,
 0x00,0x00,0x00,0x00,0x00,0x00,0x00,0x00,0x00,0x00,0x00,0x00,0x0f,0x00,0x00,
 0x18,0x00,0x00,0x00,0x00,0x00,0x00,0x00,0x00,0x00,0x0a,0x00,0x80,0x0f,0x00,
 0x00,0x3c,0x00,0x00,0x00,0xe0,0x01,0x3c,0x00,0x00,0x00,0x0e,0x00,0x00,0x0f,
 0x00,0x00,0x7c,0x00,0x00,0x00,0xf0,0x01,0x3c,0x00,0x00,0x00,0x1f,0x00,0x00,
 0x07,0x00,0x00,0x1c,0x00,0x00,0x00,0xe0,0x01,0x7c,0x00,0x00,0x00,0x1f,0x00,
 0x00,0x00,0x80,0x01,0x10,0x00,0x00,0x00,0xe0,0x00,0x38,0x00,0x00,0x00,0x04,
 0x00,0x00,0x00,0xc0,0x03,0x00,0x78,0x00,0x00,0x00,0x00,0x00,0x00,0x00,0x00,
 0x00,0x00,0x00,0x00,0xc0,0x03,0x00,0x78,0x00,0x00,0x00,0x00,0x00,0x00,0x00,
 0x0e,0x00,0x00,0x00,0x00,0x80,0x01,0x00,0x78,0x00,0x00,0x00,0x00,0x00,0x00,
 0x00,0x1f,0x00,0x00,0x00,0x00,0x00,0x00,0x00,0x00,0x00,0x00,0x00,0x00,0x00,
 0x00,0x00,0x1f,0x00,0x00,0x00,0x70,0x00,0x00,0x00,0x00,0x00,0x00,0x00,0x00,
 0x00,0x00,0x00,0x04,0x00,0x00,0x00,0x78,0x00,0xc0,0x03,0x00,0x00,0x00,0x00,
 0x00,0x00,0x00,0x00,0x00,0x00,0x00,0x00,0x78,0x00,0xc0,0x03,0x00,0x00,0x00,
 0x00,0x00,0x00,0x00,0x00,0x00,0x80,0x07,0x00,0x10,0x00,0x80,0x01,0x00,0x2c,
 0x00,0x00,0x3c,0xe0,0x01,0x00,0x00,0x00,0x0f,0x3c,0x00,0x00,0x00,0x00,0x00,
 0x3c,0x00,0x00,0x3c,0xe0,0x03,0x08,0x00,0x00,0x07,0x3c,0x00,0x30,0x00,0x00,
 0x00,0x3e,0x00,0x00,0x3c,0xc0,0x01,0x1e,0xc0,0x00,0x00,0x3c,0x00,0x78,0x00,
 0x00,0x00,0x3c,0x00,0x00,0x08,0xc0,0x01,0x1e,0xe0,0x01,0x00,0x14,0x00,0x78,
 0x00,0x00,0x00,0x14,0x00,0x00,0x00,0x00,0x00,0x1a,0xc0,0x03,0x00,0x00,0x00,
 0x00,0x00,0x80,0x03,0x00,0x00,0x00,0x00,0x00,0x00,0x00,0xc0,0x01,0x00,0x00,
 0x00,0x00,0x00,0xc0,0x07,0x00,0x00,0x00,0x00,0x00,0x00,0x00,0x80,0x00,0x00,
 0x00,0x00,0x00,0x00,0xc0,0x03,0x00,0x00,0x00,0x00,0x00,0x00,0x00,0x00,0x00,
 0x00,0x00,0x00,0x00,0x00,0x80,0x03,0x00,0x0e,0x00,0x00,0x03,0x00,0x00,0x00,
 0x00,0x00,0x00,0x0c,0x00,0x00,0x00,0x00,0x00,0x0f,0x00,0x80,0x0f,0x1c,0x00,
 0x0e,0x30,0xc0,0x01,0x1e,0x00,0x00,0x00,0x00,0x00,0x1f,0x00,0x80,0x0f,0x1e,
 0x00,0x0e,0xf8,0xe0,0x01,0x1f,0x00,0x00,0x00,0xc0,0x01,0x06,0x00,0x00,0x02,
 0x3e,0x00,0x0f,0x70,0xe0,0x01,0x1e,0x00,0x00,0x00,0xe0,0x03,0x00,0x00,0x00,
 0x00,0x3e,0x00,0x0e,0x70,0x00,0x00,0x04,0x00,0x00,0x00,0xc0,0x03,0x00,0x00,
 0x00,0x00,0x00,0x00,0x06,0x00,0x00,0x00,0x00,0x00,0x00,0x00,0x00,0x00,0x00,
 0x00,0x00,0x00,0x00,0x00,0x00,0x00,0x00,0x00,0x00,0x00,0x00,0x06,0x00,0x00,
 0x00,0x00,0x00,0x00,0x00,0x00,0x00,0x00,0x00,0x00,0x00,0x00,0x00,0x1f,0x00,
 0x00,0x00,0x40,0x00,0x00,0x00,0x10,0x00,0x00,0x00,0x00,0x00,0x00,0x00,0x0e,
 0x00,0x00,0x00,0x70,0x00,0x00,0x00,0x14,0x00,0x00,0x00,0x04,0x00,0x00,0x00,
 0x0e,0x00,0x00,0x0e,0x70,0xc0,0x03,0x00,0x3c,0x40,0x00,0x00,0x1e,0x00,0x00,
 0x00,0x00,0x00,0x00,0x0e,0xf0,0xc0,0x03,0x0e,0x38,0xc0,0x01,0x00,0x0e,0x00,
 0x00,0x00,0x00,0x00,0x00,0x0e,0x00,0xc0,0x03,0x1f,0x18,0xe0,0x81,0x03,0x1e,
 0x00,0x00,0x00,0x00,0xc0,0x01,0x04,0x00,0xc0,0x00,0x1e,0x10,0x80,0x80,0x07,
 0x00,0x00,0x80,0x03,0x00,0xe0,0x01,0x00,0x00,0x00,0x00,0x06,0x00,0x00,0x80,
 0x07,0x00,0x00,0x80,0x07,0x00,0xc0,0x01,0x00,0x00,0x00,0x00,0x00,0x00,0x00,
 0x00,0x00,0x00,0x00,0x80,0x07,0x00,0x00,0x00,0x00,0x00,0x00,0x00,0x00,0x00,
 0x00,0x00,0x00,0x00,0x00,0x80,0x00,0x1c,0x00,0x00,0x00,0x04,0x00,0x00,0x00,
 0x01,0x00,0x00,0x00,0x00,0x01,0x00,0x00,0x1e,0x00,0x00,0x00,0x0c,0x00,0x38,
 0x00,0x03,0x0c,0x00,0x30,0x80,0x03,0x1c,0x00,0x0c,0x00,0xe0,0x00,0x1e,0x00,
 0x38,0x80,0x07,0x0e,0x00,0x7c,0x80,0x03,0x1c,0x00,0x00,0x0e,0xe0,0x00,0x0f,
 0x00,0x18,0x80,0x07,0x06,0x00,0x78,0xc0,0x03,0x08,0x00,0x00,0x0e,0x80,0x00,
 0x04,0x00,0x3c,0x00,0x02,0x00,0x00,0x14,0x00,0x00,0x00,0x00,0x00,0x0f,0x00,
 0x00,0x00,0x00,0x08,0x00,0x00,0x00,0x00,0x00,0x00,0x00,0x00,0x00,0x00,0x00,
 0x00,0x00,0x00,0x00,0x00,0x00,0x00,0x00,0x00,0x00,0x00,0x00,0x00,0x00,0x00,
 0x00,0x00,0x00,0x00,0x00,0x00,0x00,0x00};
