#define sand2_64_width 64
#define sand2_64_height 64
static char sand2_64_bits[] = {
 0xc0,0x00,0x00,0x00,0x00,0x00,0x0c,0x00,0x80,0x00,0x0c,0x30,0x86,0x61,0x8c,
 0x63,0x00,0x60,0x08,0x00,0x02,0x00,0x00,0x01,0x18,0x62,0x00,0x00,0x00,0x00,
 0x00,0x00,0x18,0x07,0x00,0x03,0x00,0x00,0x0c,0x08,0x00,0x02,0x00,0x02,0x73,
 0x00,0x84,0x08,0x00,0x00,0x00,0x30,0x00,0x00,0x80,0xc0,0x03,0x80,0x01,0x30,
 0x00,0x00,0x00,0xc0,0x20,0x80,0x01,0x00,0x00,0x00,0x00,0x00,0x70,0x0c,0x00,
 0x00,0x80,0x01,0x00,0x08,0x00,0x00,0x00,0x00,0x86,0x00,0x00,0x08,0x00,0x00,
 0x10,0x00,0x00,0x30,0x00,0x40,0x00,0x00,0x18,0x00,0x80,0x00,0x04,0x40,0x00,
 0x06,0x00,0x00,0x80,0x01,0x04,0x00,0x00,0xc6,0x00,0x86,0x01,0x00,0x00,0x18,
 0x00,0xc0,0x00,0x86,0x11,0x30,0x00,0x18,0x00,0x00,0x18,0x00,0x10,0x30,0xc0,
 0x00,0x00,0x00,0x00,0x00,0x00,0x01,0x80,0x80,0x06,0x00,0x00,0x60,0x80,0x01,
 0x06,0xc0,0x06,0x00,0x00,0x63,0x00,0x00,0x00,0x04,0x00,0x00,0x00,0x01,0x00,
 0x20,0x00,0x0e,0x00,0x00,0x00,0x00,0x00,0x60,0x00,0x00,0x60,0x00,0x00,0x00,
 0x00,0x00,0x18,0x00,0x60,0x18,0x00,0x08,0x00,0x06,0x10,0x00,0x02,0x08,0xc0,
 0x08,0x00,0x02,0x00,0x60,0x02,0x00,0xc3,0x00,0x20,0xc0,0x00,0x20,0x00,0x00,
 0x03,0x00,0x30,0x80,0x00,0x00,0x18,0x04,0x00,0x00,0x00,0x00,0x00,0x00,0x38,
 0x06,0x00,0x00,0x00,0x00,0x00,0x00,0x00,0x00,0x60,0x00,0x02,0x06,0x00,0x08,
 0x00,0x80,0x21,0x00,0x07,0x04,0x00,0x1c,0x00,0x80,0x03,0x00,0x00,0x00,0x00,
 0x00,0xc0,0x08,0x00,0x00,0x20,0x00,0x60,0x00,0x80,0x18,0x00,0x00,0x60,0x00,
 0x60,0x60,0x04,0x00,0x00,0x60,0x20,0x00,0x00,0x60,0x04,0x00,0x18,0x00,0x00,
 0x06,0x02,0x00,0x00,0x80,0x08,0x00,0x00,0x00,0x00,0x07,0x00,0xc0,0x00,0x00,
 0x00,0x00,0x00,0x00,0x30,0x00,0x00,0x06,0x06,0x00,0x08,0x00,0x00,0x00,0x20,
 0x0e,0x00,0x38,0x18,0x00,0x00,0x00,0x70,0x00,0x00,0x00,0x00,0x00,0x00,0x00,
 0x00,0x00,0x00,0x00,0x00,0x00,0x00,0x00,0x03,0x60,0x00,0x80,0x61,0x00,0x70,
 0x00,0x03,0x60,0x00,0x80,0xe1,0x00,0x20,0x00,0x80,0x01,0x0c,0x00,0x00,0x00,
 0x02,0x00,0x00,0x01,0x0c,0x00,0x00,0x00,0x07,0x00,0x0c,0x00,0x00,0x00,0x00,
 0x00,0x00,0x00,0x0c,0x18,0x00,0x00,0x00,0x00,0x00,0x63,0x00,0x00,0x60,0x00,
 0x86,0x01,0x08,0x60,0xc0,0x00,0x60,0x00,0x80,0x61,0x18,0x00,0x00,0x00,0x01,
 0x00,0x00,0x00,0x00,0x00,0x00,0x80,0x01,0x00,0x00,0x00,0x00,0x00,0x02,0x00,
 0x00,0x03,0x30,0x06,0xc2,0x18,0x07,0x00,0x18,0x02,0x00,0x06,0xc2,0x00,0x02,
 0x00,0x18,0x00,0x00,0x00,0x00,0x00,0x00,0x20,0x00,0x00,0x00,0x00,0x00,0x00,
 0x00,0x20,0x00,0xc0,0x00,0x60,0x08,0x60,0x00,0x00,0x00,0xc2,0x18,0x42,0x18,
 0x61,0x00,0x00,0x18,0x02,0x08,0x46,0x00,0x03,0x00,0x03,0x18,0x00,0x00,0x00,
 0x00,0x00,0x00,0x60,0x00,0x20,0x00,0x10,0x02,0x04,0x61,0x20,0x80,0x60,0x40,
 0x30,0x02,0x8c,0x01,0x00,0x02,0x20,0x60,0x00,0x00,0x00,0x00,0x00,0x00,0x00,
 0x00,0x00};
