#define m240_width 64
#define m240_height 66
static char m240_bits[] = {
 0x00,0x00,0x00,0x03,0x80,0x03,0x00,0x00,0x00,0x00,0x00,0x06,0xf0,0x00,0x00,
 0x03,0x00,0x00,0x00,0x00,0x3e,0x00,0x80,0x01,0x00,0x00,0x00,0x00,0x07,0x00,
 0x80,0x01,0xc0,0x00,0x01,0x00,0x00,0x00,0xc0,0x00,0xc0,0x00,0x03,0x00,0x00,
 0x00,0xc0,0x00,0x60,0x00,0x03,0x00,0x00,0x02,0x40,0x00,0x70,0x00,0x03,0x00,
 0x00,0x06,0x60,0x00,0x38,0x00,0x03,0x00,0x00,0x06,0x20,0x00,0x18,0x00,0x06,
 0x00,0x00,0x06,0x00,0x00,0x00,0x00,0x06,0x80,0x00,0x0c,0x00,0x00,0x00,0x00,
 0x06,0xc0,0x00,0x0c,0x00,0x00,0x00,0x00,0x06,0x40,0x00,0x0c,0x00,0x00,0x00,
 0x00,0x04,0x60,0x00,0x08,0x00,0x30,0x00,0x00,0x00,0x20,0x00,0x00,0x00,0x18,
 0xc0,0x00,0x00,0x30,0x08,0x00,0x00,0x08,0x80,0x01,0x00,0x18,0x18,0x00,0x00,
 0x0c,0x80,0x01,0x00,0x18,0x30,0x00,0x0c,0x04,0x80,0x03,0x00,0x08,0x30,0x00,
 0x06,0x06,0x00,0x03,0x20,0x00,0x60,0x00,0x03,0x03,0x00,0x03,0x30,0x00,0x60,
 0x80,0x01,0x03,0x00,0x03,0x18,0x00,0xc0,0xc0,0x00,0x00,0x00,0x03,0x0e,0x00,
 0xc0,0x60,0x00,0x00,0x00,0x00,0x07,0x00,0x80,0x60,0x00,0x00,0x00,0x80,0x01,
 0x00,0x00,0x00,0x00,0x20,0x00,0x80,0x01,0x80,0x01,0x00,0x00,0x60,0x01,0x00,
 0x00,0x80,0x00,0x00,0x00,0xc0,0x03,0x00,0x00,0xc0,0x00,0x60,0x00,0x80,0x06,
 0x00,0x00,0x40,0x00,0xe0,0x03,0x00,0x0c,0x00,0x00,0x60,0x00,0x00,0x0f,0x00,
 0x18,0x00,0x00,0x60,0x00,0x00,0x3c,0x00,0x30,0x00,0x04,0x20,0x00,0x00,0x20,
 0x00,0x60,0x00,0x1c,0x30,0x00,0x00,0x00,0x00,0x40,0x00,0x78,0x20,0x00,0x00,
 0x00,0x00,0x00,0x10,0xe0,0x00,0x00,0x01,0x00,0x00,0x00,0x18,0x80,0x03,0xc0,
 0x01,0x00,0x40,0x00,0x0c,0x00,0x07,0xf0,0x00,0x00,0x60,0x00,0x06,0x00,0x00,
 0x38,0x00,0x00,0x30,0x00,0x03,0x00,0x00,0x0c,0x00,0x00,0x18,0x80,0x01,0x00,
 0x00,0x07,0x00,0x00,0x0c,0xc0,0x00,0x0c,0x00,0x03,0x00,0x00,0x06,0x00,0x00,
 0x04,0x00,0x00,0x00,0x00,0x03,0x00,0x00,0x06,0x00,0x00,0x00,0x00,0x01,0x00,
 0x00,0x06,0x06,0x00,0x30,0x00,0x00,0x00,0x00,0x02,0x06,0x00,0x70,0x00,0x00,
 0x00,0x00,0x03,0x0c,0x00,0xe0,0x00,0x00,0x00,0x0e,0x03,0x0c,0x00,0xc0,0x01,
 0x40,0x80,0x07,0x01,0x18,0x00,0x00,0x03,0x60,0xe0,0x01,0x00,0x18,0x00,0x00,
 0x0e,0x60,0x78,0x00,0x00,0x30,0x00,0x00,0x0c,0x30,0x18,0x00,0x00,0x30,0x00,
 0x00,0x08,0x30,0x00,0x00,0x00,0x00,0x00,0x00,0x00,0x10,0x00,0x00,0x00,0x00,
 0x00,0x00,0x00,0x10,0x00,0x00,0x00,0x00,0x60,0x00,0x00,0x1c,0x00,0x00,0x00,
 0x00,0x30,0x00,0x00,0x0c,0x00,0xfe,0x00,0x00,0x1c,0x30,0x00,0x06,0x00,0xfc,
 0x03,0x00,0x0f,0x38,0x00,0x04,0x00,0x00,0x00,0x80,0x03,0x18,0x00,0x00,0x00,
 0x00,0x00,0xc0,0x01,0x18,0x00,0x00,0x04,0x00,0x00,0x60,0x00,0x0c,0x06,0x00,
 0x0c,0x00,0x00,0x00,0x00,0x0c,0xfe,0x00,0x18,0x00,0x0e,0x00,0x00,0x00,0xf0,
 0x07,0x38,0x00,0x3c,0x00,0x00,0x00,0x00,0x1e,0x30,0x00,0x70,0x00,0x00,0x00,
 0x00,0x10,0x60,0x00,0xc0,0x01,0x00,0x06,0x00,0x00,0x00,0x00,0x00,0x03,0x00,
 0x07,0x00,0x00};
