#define m243_width 48
#define m243_height 48
static char m243_bits[] = {
 0x01,0x80,0x00,0x00,0x00,0x00,0x01,0x80,0x00,0x00,0x00,0x00,0x02,0x40,0x00,
 0x00,0x00,0x00,0x02,0x40,0x00,0x00,0x00,0x00,0x02,0x40,0x00,0x00,0x00,0x00,
 0x04,0x20,0x00,0x00,0x00,0x00,0x04,0x20,0x00,0x00,0x00,0x00,0x04,0x20,0x00,
 0x00,0x00,0x00,0x08,0x10,0x00,0x00,0x00,0x00,0x08,0x10,0x00,0x00,0x00,0x00,
 0x10,0x08,0x00,0x00,0x00,0x00,0x10,0x08,0x00,0x00,0x00,0x00,0x10,0x08,0x00,
 0x00,0x00,0x00,0x20,0x04,0x00,0x00,0x00,0x00,0x20,0x04,0x00,0x00,0x00,0x00,
 0x20,0x04,0x00,0x00,0x00,0x00,0x40,0x02,0x00,0x00,0x00,0x00,0x40,0x02,0x00,
 0x00,0x00,0x00,0x40,0x02,0x00,0x00,0x00,0x00,0x80,0x01,0x00,0x00,0x00,0x00,
 0x80,0x01,0x00,0x00,0x00,0x00,0x00,0x00,0x00,0x00,0x00,0x00,0x00,0x00,0x00,
 0x00,0x00,0x00,0x00,0x00,0x00,0x00,0x00,0x00,0x00,0x00,0x00,0x01,0x80,0x00,
 0x00,0x00,0x00,0x01,0x80,0x00,0x00,0x00,0x00,0x02,0x40,0x00,0x00,0x00,0x00,
 0x02,0x40,0x00,0x00,0x00,0x00,0x02,0x40,0x00,0x00,0x00,0x00,0x04,0x20,0x00,
 0x00,0x00,0x00,0x04,0x20,0x00,0x00,0x00,0x00,0x04,0x20,0x00,0x00,0x00,0x00,
 0x08,0x10,0x00,0x00,0x00,0x00,0x08,0x10,0x00,0x00,0x00,0x00,0x10,0x08,0x00,
 0x00,0x00,0x00,0x10,0x08,0x00,0x00,0x00,0x00,0x10,0x08,0x00,0x00,0x00,0x00,
 0x20,0x04,0x00,0x00,0x00,0x00,0x20,0x04,0x00,0x00,0x00,0x00,0x20,0x04,0x00,
 0x00,0x00,0x00,0x40,0x02,0x00,0x00,0x00,0x00,0x40,0x02,0x00,0x00,0x00,0x00,
 0x40,0x02,0x00,0x00,0x00,0x00,0x80,0x01,0x00,0x00,0x00,0x00,0x80,0x01,0x00,
 0x00,0x00,0x00,0x00,0x00,0x00,0x00,0x00,0x00,0x00,0x00,0x00,0x00,0x00,0x00,
 0x00,0x00,0x00};
