#define m25.xbm_width 31
#define m25.xbm_height 31
static char m25.xbm_bits[] = {
   0xc0, 0x00, 0x00, 0x06, 0x00, 0x00, 0x06, 0x00, 0x00, 0x00, 0x06, 0x00,
   0x0c, 0x0c, 0x00, 0x00, 0x0c, 0x0c, 0x00, 0x30, 0x00, 0x00, 0x00, 0x30,
   0x00, 0x00, 0x00, 0x00, 0x00, 0x03, 0x60, 0x00, 0x00, 0x83, 0x61, 0x00,
   0x00, 0x80, 0x01, 0x00, 0x18, 0x00, 0x00, 0x00, 0x18, 0x00, 0x00, 0x18,
   0x00, 0x00, 0x30, 0x18, 0x00, 0x18, 0x30, 0x00, 0x00, 0x18, 0x00, 0x00,
   0x30, 0x00, 0x00, 0x60, 0x30, 0x00, 0x00, 0x60, 0x00, 0x00, 0x00, 0x00,
   0x00, 0x00, 0x03, 0x00, 0x00, 0x03, 0x83, 0x01, 0x01, 0x03, 0x80, 0x41,
   0x01, 0x00, 0x00, 0x40, 0x00, 0x00, 0x00, 0x00, 0x00, 0x30, 0x18, 0x00,
   0x30, 0x30, 0x18, 0x00, 0x30, 0x00, 0x00, 0x03, 0x01, 0x00, 0x00, 0x43,
   0x01, 0x00, 0x00, 0x40, 0x00, 0xc0, 0x00, 0x00, 0x00, 0xc0, 0x00, 0x00,
   0xc0, 0x00, 0x00, 0x06};
