#define m31.xbm_width 64
#define m31.xbm_height 64
static char m31.xbm_bits[] = {
   0x00, 0x00, 0x00, 0x00, 0x00, 0x00, 0x00, 0x00, 0x00, 0x00, 0x00, 0x00,
   0x0e, 0x00, 0x00, 0x00, 0x00, 0x00, 0x04, 0x00, 0x11, 0x00, 0x00, 0xc0,
   0x00, 0x00, 0x0c, 0x00, 0x0e, 0x00, 0xc0, 0x00, 0x00, 0x00, 0x0c, 0x06,
   0x00, 0x00, 0x20, 0x01, 0x00, 0x00, 0x0c, 0x00, 0x00, 0x00, 0x10, 0x02,
   0x00, 0x00, 0x0c, 0x00, 0x00, 0x00, 0x08, 0x04, 0x00, 0x00, 0x18, 0x00,
   0x00, 0x00, 0x08, 0x04, 0x00, 0x00, 0x18, 0x00, 0x00, 0x00, 0x08, 0x04,
   0x00, 0x00, 0x18, 0x00, 0x00, 0x01, 0x08, 0x04, 0x00, 0x00, 0x08, 0x00,
   0xc0, 0x01, 0x08, 0x04, 0xf0, 0x01, 0x00, 0x00, 0xf0, 0x00, 0x08, 0x04,
   0x08, 0x02, 0x00, 0x00, 0x3c, 0x00, 0x08, 0x04, 0x08, 0x02, 0x00, 0x00,
   0x0f, 0x00, 0x10, 0x02, 0xf0, 0x01, 0x00, 0x80, 0x03, 0x00, 0x20, 0x01,
   0x00, 0x00, 0x00, 0x00, 0x00, 0x00, 0xc0, 0x00, 0x00, 0x00, 0x03, 0x00,
   0x00, 0x00, 0x00, 0x00, 0x00, 0x80, 0x04, 0x00, 0x00, 0x00, 0x00, 0x00,
   0x00, 0x80, 0x04, 0x00, 0x00, 0x00, 0x00, 0x00, 0x00, 0x40, 0x08, 0x00,
   0x60, 0x00, 0x00, 0x00, 0x00, 0x40, 0x08, 0x00, 0x00, 0x00, 0x00, 0x00,
   0x00, 0x40, 0x08, 0x00, 0x00, 0x00, 0x30, 0x00, 0x00, 0x40, 0x08, 0x00,
   0x00, 0x00, 0x00, 0x00, 0x00, 0x40, 0x08, 0x00, 0x00, 0x00, 0x00, 0x00,
   0x00, 0x40, 0x08, 0x00, 0x00, 0x00, 0x00, 0x00, 0x00, 0x80, 0x04, 0x80,
   0x01, 0x00, 0x00, 0x00, 0x00, 0x80, 0x04, 0x80, 0x00, 0x00, 0x00, 0x00,
   0x00, 0x00, 0x03, 0xc0, 0x00, 0x60, 0x00, 0x00, 0x60, 0x00, 0x00, 0x40,
   0x00, 0xe0, 0x03, 0x00, 0x00, 0x00, 0x00, 0x60, 0x00, 0x00, 0x0f, 0x00,
   0x00, 0x00, 0x00, 0x60, 0x00, 0x00, 0x3c, 0x00, 0x00, 0x00, 0x00, 0x20,
   0x00, 0x00, 0x20, 0x00, 0x00, 0x00, 0x00, 0x30, 0x00, 0x00, 0x00, 0x00,
   0x00, 0x00, 0x00, 0x20, 0x00, 0x00, 0x00, 0x00, 0x00, 0x00, 0x00, 0x00,
   0x00, 0x00, 0x00, 0x00, 0x00, 0x30, 0x00, 0x00, 0x00, 0x00, 0x00, 0xc0,
   0x00, 0x1c, 0x00, 0x00, 0x00, 0x00, 0x00, 0x00, 0x00, 0x06, 0x00, 0x00,
   0x00, 0x00, 0x00, 0x00, 0x80, 0x03, 0x00, 0x00, 0xc0, 0x0f, 0x00, 0x00,
   0xc0, 0x00, 0xc0, 0x00, 0x30, 0x30, 0x00, 0x00, 0x40, 0x00, 0x00, 0x00,
   0x08, 0x40, 0x00, 0x00, 0x00, 0x00, 0x00, 0x00, 0x08, 0x40, 0x00, 0x00,
   0x00, 0x00, 0x00, 0x00, 0x08, 0x40, 0x00, 0x00, 0x00, 0x00, 0x00, 0x00,
   0x08, 0x40, 0x00, 0x00, 0x00, 0x00, 0x00, 0x00, 0x30, 0x30, 0x00, 0x00,
   0x00, 0x00, 0x00, 0x00, 0xc0, 0x0f, 0x00, 0x00, 0x00, 0x78, 0x00, 0x00,
   0x00, 0x00, 0x00, 0x40, 0x00, 0x84, 0x00, 0x00, 0x00, 0x00, 0x00, 0x60,
   0x00, 0x02, 0x01, 0x00, 0x00, 0x00, 0x00, 0x60, 0x00, 0x02, 0x01, 0x00,
   0xc0, 0x00, 0x00, 0x30, 0x00, 0x01, 0x02, 0x00, 0x00, 0x00, 0x00, 0x30,
   0x00, 0x01, 0x02, 0x30, 0x00, 0x00, 0x00, 0x10, 0x00, 0x01, 0x02, 0x30,
   0x00, 0x00, 0x00, 0x10, 0x00, 0x01, 0x02, 0x60, 0x00, 0x00, 0x00, 0x1c,
   0x00, 0x01, 0x02, 0x60, 0x00, 0x00, 0x00, 0x0c, 0x00, 0x02, 0x01, 0xc0,
   0x00, 0x00, 0x00, 0x06, 0x00, 0x02, 0x01, 0xc0, 0x00, 0x00, 0x00, 0x04,
   0x00, 0x84, 0x00, 0x80, 0x01, 0x00, 0x00, 0x00, 0x00, 0x78, 0x00, 0x80,
   0x01, 0x00, 0x00, 0x00, 0x04, 0x00, 0x00, 0x00, 0x00, 0x0c, 0x00, 0x00,
   0x0c, 0x00, 0x00, 0x00, 0x00, 0x00, 0x00, 0x00, 0x18, 0x00, 0x00, 0x00,
   0x00, 0x00, 0xc0, 0x00, 0x38, 0x00, 0x00, 0x00, 0x00, 0x00, 0x00, 0x00,
   0x30, 0x00, 0x00, 0x00, 0x00, 0x00, 0x00, 0x00};
