#define m35.xbm_width 24
#define m35.xbm_height 24
static char m35.xbm_bits[] = {
   0x20, 0x00, 0x00, 0x20, 0x00, 0x00, 0x20, 0x00, 0x00, 0x20, 0x00, 0x00,
   0x20, 0x00, 0x00, 0xff, 0x07, 0x00, 0x20, 0x00, 0x00, 0x20, 0x00, 0x00,
   0x20, 0x00, 0x00, 0x20, 0x00, 0x00, 0x20, 0x00, 0x00, 0x00, 0x00, 0x00,
   0x00, 0x00, 0x02, 0x00, 0x00, 0x02, 0x00, 0x00, 0x02, 0x00, 0x00, 0x02,
   0x00, 0x00, 0x02, 0x00, 0xf0, 0x7f, 0x00, 0x00, 0x02, 0x00, 0x00, 0x02,
   0x00, 0x00, 0x02, 0x00, 0x00, 0x02, 0x00, 0x00, 0x02, 0x00, 0x00, 0x00};
