#define m35av.xbm_width 48
#define m35av.xbm_height 48
static char m35av.xbm_bits[] = {
   0x01, 0x06, 0x01, 0x04, 0x01, 0x04, 0x03, 0x03, 0x03, 0x06, 0x03, 0x06,
   0x86, 0x01, 0x06, 0x03, 0x06, 0x03, 0x8c, 0x01, 0x8c, 0x01, 0x8c, 0x01,
   0xd8, 0x00, 0xd8, 0x00, 0xd8, 0x00, 0x70, 0x00, 0x70, 0x00, 0x70, 0x00,
   0x70, 0x00, 0x70, 0x00, 0x70, 0x00, 0xd8, 0x00, 0xd8, 0x00, 0xd8, 0x00,
   0x8c, 0x01, 0x8c, 0x01, 0x8c, 0x01, 0x06, 0x03, 0x06, 0x03, 0x06, 0x03,
   0x03, 0x06, 0x03, 0x06, 0x03, 0x06, 0x00, 0x00, 0x00, 0x00, 0x00, 0x00,
   0x00, 0x00, 0x00, 0x00, 0x00, 0x00, 0x00, 0x00, 0x00, 0x00, 0x00, 0x00,
   0x00, 0x00, 0x00, 0x00, 0x00, 0x00, 0x00, 0x00, 0x00, 0x00, 0x00, 0x00,
   0x01, 0x04, 0x01, 0x04, 0x01, 0x04, 0x03, 0x06, 0x03, 0x06, 0x03, 0x06,
   0x06, 0x03, 0x06, 0x03, 0x06, 0x03, 0x8c, 0x01, 0x8c, 0x01, 0x8c, 0x01,
   0xd8, 0x00, 0xd8, 0x00, 0xd8, 0x00, 0x70, 0x00, 0x70, 0x00, 0x70, 0x00,
   0x70, 0x00, 0x70, 0x00, 0x70, 0x00, 0xd8, 0x00, 0xd8, 0x00, 0xd8, 0x00,
   0x8c, 0x01, 0x8c, 0x01, 0x8c, 0x01, 0x06, 0x03, 0x06, 0x03, 0x06, 0x03,
   0x03, 0x06, 0x03, 0x06, 0x03, 0x06, 0x00, 0x00, 0x00, 0x00, 0x00, 0x00,
   0x00, 0x00, 0x00, 0x00, 0x00, 0x00, 0x00, 0x00, 0x00, 0x00, 0x00, 0x00,
   0x00, 0x00, 0x00, 0x00, 0x00, 0x00, 0x00, 0x00, 0x00, 0x00, 0x00, 0x00,
   0x01, 0x04, 0x01, 0x04, 0x01, 0x04, 0x03, 0x06, 0x03, 0x06, 0x03, 0x06,
   0x06, 0x03, 0x06, 0x03, 0x06, 0x03, 0x8c, 0x01, 0x8c, 0x01, 0x8c, 0x01,
   0xd8, 0x00, 0xd8, 0x00, 0xd8, 0x00, 0x70, 0x00, 0x70, 0x00, 0x70, 0x00,
   0x70, 0x00, 0x70, 0x00, 0x70, 0x00, 0xd8, 0x00, 0xd8, 0x00, 0xd8, 0x00,
   0x8c, 0x01, 0x8c, 0x01, 0x8c, 0x01, 0x06, 0x03, 0x06, 0x03, 0x06, 0x03,
   0x03, 0x06, 0x03, 0x06, 0x03, 0x06, 0x00, 0x00, 0x00, 0x00, 0x00, 0x00,
   0x00, 0x00, 0x00, 0x00, 0x00, 0x00, 0x00, 0x00, 0x00, 0x00, 0x00, 0x00,
   0x00, 0x00, 0x00, 0x00, 0x00, 0x00, 0x00, 0x00, 0x00, 0x00, 0x00, 0x00};
