#define m35h.xbm_width 48
#define m35h.xbm_height 48
static char m35h.xbm_bits[] = {
   0x60, 0x00, 0x00, 0x60, 0x00, 0x00, 0x60, 0x00, 0x00, 0x60, 0x00, 0x00,
   0x60, 0x00, 0x00, 0x60, 0x00, 0x00, 0x60, 0x00, 0x00, 0x60, 0x00, 0x00,
   0x60, 0x00, 0x00, 0x60, 0x00, 0x00, 0xff, 0x0f, 0x00, 0xff, 0x0f, 0x00,
   0xff, 0x0f, 0x00, 0xff, 0x0f, 0x00, 0x60, 0x00, 0x00, 0x60, 0x00, 0x00,
   0x60, 0x00, 0x00, 0x60, 0x00, 0x00, 0x60, 0x00, 0x00, 0x60, 0x00, 0x00,
   0x60, 0x00, 0x00, 0x60, 0x00, 0x00, 0x60, 0x00, 0x00, 0x60, 0x00, 0x00,
   0x00, 0x00, 0x06, 0x00, 0x00, 0x06, 0x00, 0x00, 0x06, 0x00, 0x00, 0x06,
   0x00, 0x00, 0x06, 0x00, 0x00, 0x06, 0x00, 0x00, 0x06, 0x00, 0x00, 0x06,
   0x00, 0x00, 0x06, 0x00, 0x00, 0x06, 0x00, 0xf0, 0xff, 0x00, 0xf0, 0xff,
   0x00, 0xf0, 0xff, 0x00, 0xf0, 0xff, 0x00, 0x00, 0x06, 0x00, 0x00, 0x06,
   0x00, 0x00, 0x06, 0x00, 0x00, 0x06, 0x00, 0x00, 0x06, 0x00, 0x00, 0x06,
   0x00, 0x00, 0x06, 0x00, 0x00, 0x06, 0x00, 0x00, 0x06, 0x00, 0x00, 0x06,
   0x60, 0x00, 0x00, 0x60, 0x00, 0x00, 0x60, 0x00, 0x00, 0x60, 0x00, 0x00,
   0x60, 0x00, 0x00, 0x60, 0x00, 0x00, 0x60, 0x00, 0x00, 0x60, 0x00, 0x00,
   0x60, 0x00, 0x00, 0x60, 0x00, 0x00, 0xff, 0x0f, 0x00, 0xff, 0x0f, 0x00,
   0xff, 0x0f, 0x00, 0xff, 0x0f, 0x00, 0x60, 0x00, 0x00, 0x60, 0x00, 0x00,
   0x60, 0x00, 0x00, 0x60, 0x00, 0x00, 0x60, 0x00, 0x00, 0x60, 0x00, 0x00,
   0x60, 0x00, 0x00, 0x60, 0x00, 0x00, 0x60, 0x00, 0x00, 0x60, 0x00, 0x00,
   0x00, 0x00, 0x06, 0x00, 0x00, 0x06, 0x00, 0x00, 0x06, 0x00, 0x00, 0x06,
   0x00, 0x00, 0x06, 0x00, 0x00, 0x06, 0x00, 0x00, 0x06, 0x00, 0x00, 0x06,
   0x00, 0x00, 0x06, 0x00, 0x00, 0x06, 0x00, 0xf0, 0xff, 0x00, 0xf0, 0xff,
   0x00, 0xf0, 0xff, 0x00, 0xf0, 0xff, 0x00, 0x00, 0x06, 0x00, 0x00, 0x06,
   0x00, 0x00, 0x06, 0x00, 0x00, 0x06, 0x00, 0x00, 0x06, 0x00, 0x00, 0x06,
   0x00, 0x00, 0x06, 0x00, 0x00, 0x06, 0x00, 0x00, 0x06, 0x00, 0x00, 0x06};
