#define m36h.xbm_width 64
#define m36h.xbm_height 64
static char m36h.xbm_bits[] = {
   0x18, 0x00, 0x00, 0x03, 0x00, 0xc0, 0x00, 0x00, 0x18, 0x00, 0x00, 0x03,
   0x00, 0xc0, 0x00, 0x00, 0x18, 0x00, 0x00, 0x03, 0x00, 0xc0, 0x00, 0x00,
   0xff, 0x00, 0xe0, 0x1f, 0x00, 0xf8, 0x07, 0x00, 0xff, 0x00, 0xe0, 0x1f,
   0x00, 0xf8, 0x07, 0x00, 0x18, 0x00, 0x00, 0x03, 0x00, 0xc0, 0x00, 0x00,
   0x18, 0x00, 0x00, 0x03, 0x00, 0xc0, 0x00, 0x00, 0x18, 0x00, 0x00, 0x03,
   0x00, 0xc0, 0x00, 0x00, 0x00, 0x00, 0x00, 0x00, 0x00, 0x00, 0x00, 0x00,
   0x00, 0x00, 0x00, 0x00, 0x00, 0x00, 0x00, 0x00, 0x00, 0x00, 0x00, 0x00,
   0x00, 0x00, 0x00, 0x00, 0x00, 0xc0, 0x00, 0x00, 0x18, 0x00, 0x00, 0x03,
   0x00, 0xc0, 0x00, 0x00, 0x18, 0x00, 0x00, 0x03, 0x00, 0xc0, 0x00, 0x00,
   0x18, 0x00, 0x00, 0x03, 0x00, 0xf8, 0x07, 0x00, 0xff, 0x00, 0xe0, 0x1f,
   0x00, 0xf8, 0x07, 0x00, 0xff, 0x00, 0xe0, 0x1f, 0x00, 0xc0, 0x00, 0x00,
   0x18, 0x00, 0x00, 0x03, 0x00, 0xc0, 0x00, 0x00, 0x18, 0x00, 0x00, 0x03,
   0x00, 0xc0, 0x00, 0x00, 0x18, 0x00, 0x00, 0x03, 0x00, 0x00, 0x00, 0x00,
   0x00, 0x00, 0x00, 0x00, 0x00, 0x00, 0x00, 0x00, 0x00, 0x00, 0x00, 0x00,
   0x18, 0x00, 0x00, 0x03, 0x00, 0xc0, 0x00, 0x00, 0x18, 0x00, 0x00, 0x03,
   0x00, 0xc0, 0x00, 0x00, 0x18, 0x00, 0x00, 0x03, 0x00, 0xc0, 0x00, 0x00,
   0xff, 0x00, 0xe0, 0x1f, 0x00, 0xf8, 0x07, 0x00, 0xff, 0x00, 0xe0, 0x1f,
   0x00, 0xf8, 0x07, 0x00, 0x18, 0x00, 0x00, 0x03, 0x00, 0xc0, 0x00, 0x00,
   0x18, 0x00, 0x00, 0x03, 0x00, 0xc0, 0x00, 0x00, 0x18, 0x00, 0x00, 0x03,
   0x00, 0xc0, 0x00, 0x00, 0x00, 0x00, 0x00, 0x00, 0x00, 0x00, 0x00, 0x00,
   0x00, 0x00, 0x00, 0x00, 0x00, 0x00, 0x00, 0x00, 0x00, 0x00, 0x00, 0x00,
   0x00, 0x00, 0x00, 0x00, 0x00, 0xc0, 0x00, 0x00, 0x18, 0x00, 0x00, 0x03,
   0x00, 0xc0, 0x00, 0x00, 0x18, 0x00, 0x00, 0x03, 0x00, 0xc0, 0x00, 0x00,
   0x18, 0x00, 0x00, 0x03, 0x00, 0xf8, 0x07, 0x00, 0xff, 0x00, 0xe0, 0x1f,
   0x00, 0xf8, 0x07, 0x00, 0xff, 0x00, 0xe0, 0x1f, 0x00, 0xc0, 0x00, 0x00,
   0x18, 0x00, 0x00, 0x03, 0x00, 0xc0, 0x00, 0x00, 0x18, 0x00, 0x00, 0x03,
   0x00, 0xc0, 0x00, 0x00, 0x18, 0x00, 0x00, 0x03, 0x00, 0x00, 0x00, 0x00,
   0x00, 0x00, 0x00, 0x00, 0x00, 0x00, 0x00, 0x00, 0x00, 0x00, 0x00, 0x00,
   0x00, 0x00, 0x00, 0x00, 0x00, 0x00, 0x00, 0x00, 0x18, 0x00, 0x00, 0x03,
   0x00, 0xc0, 0x00, 0x00, 0x18, 0x00, 0x00, 0x03, 0x00, 0xc0, 0x00, 0x00,
   0x18, 0x00, 0x00, 0x03, 0x00, 0xc0, 0x00, 0x00, 0xff, 0x00, 0xe0, 0x1f,
   0x00, 0xf8, 0x07, 0x00, 0xff, 0x00, 0xe0, 0x1f, 0x00, 0xf8, 0x07, 0x00,
   0x18, 0x00, 0x00, 0x03, 0x00, 0xc0, 0x00, 0x00, 0x18, 0x00, 0x00, 0x03,
   0x00, 0xc0, 0x00, 0x00, 0x18, 0x00, 0x00, 0x03, 0x00, 0xc0, 0x00, 0x00,
   0x00, 0x00, 0x00, 0x00, 0x00, 0x00, 0x00, 0x00, 0x00, 0x00, 0x00, 0x00,
   0x00, 0x00, 0x00, 0x00, 0x00, 0x00, 0x00, 0x00, 0x00, 0x00, 0x00, 0x00,
   0x00, 0xc0, 0x00, 0x00, 0x18, 0x00, 0x00, 0x03, 0x00, 0xc0, 0x00, 0x00,
   0x18, 0x00, 0x00, 0x03, 0x00, 0xc0, 0x00, 0x00, 0x18, 0x00, 0x00, 0x03,
   0x00, 0xf8, 0x07, 0x00, 0xff, 0x00, 0xe0, 0x1f, 0x00, 0xf8, 0x07, 0x00,
   0xff, 0x00, 0xe0, 0x1f, 0x00, 0xc0, 0x00, 0x00, 0x18, 0x00, 0x00, 0x03,
   0x00, 0xc0, 0x00, 0x00, 0x18, 0x00, 0x00, 0x03, 0x00, 0xc0, 0x00, 0x00,
   0x18, 0x00, 0x00, 0x03, 0x00, 0x00, 0x00, 0x00, 0x00, 0x00, 0x00, 0x00,
   0x00, 0x00, 0x00, 0x00, 0x00, 0x00, 0x00, 0x00};
