#define m38a1.xbm_width 48
#define m38a1.xbm_height 48
static char m38a1.xbm_bits[] = {
   0x00, 0x00, 0x00, 0x00, 0x00, 0x00, 0x00, 0x00, 0x00, 0x00, 0x00, 0x00,
   0x02, 0x01, 0x00, 0x02, 0x01, 0x00, 0x86, 0x01, 0x00, 0x86, 0x01, 0x00,
   0xcc, 0x00, 0x00, 0xcc, 0x00, 0x00, 0x78, 0x00, 0x00, 0x78, 0x00, 0x00,
   0x30, 0x00, 0x00, 0x30, 0x00, 0x00, 0x78, 0x00, 0x00, 0x78, 0x00, 0x00,
   0xcc, 0x00, 0x00, 0xcc, 0x00, 0x00, 0x86, 0x01, 0x00, 0x86, 0x01, 0x00,
   0x02, 0x01, 0x00, 0x02, 0x01, 0x00, 0x00, 0x00, 0x00, 0x00, 0x00, 0x00,
   0x00, 0x00, 0x00, 0x00, 0x00, 0x00, 0x00, 0x00, 0x00, 0x00, 0x00, 0x00,
   0x00, 0x20, 0x20, 0x00, 0x20, 0x20, 0x00, 0x60, 0x30, 0x00, 0x60, 0x30,
   0x00, 0xc0, 0x18, 0x00, 0xc0, 0x18, 0x00, 0x80, 0x0d, 0x00, 0x80, 0x0d,
   0x00, 0x00, 0x07, 0x00, 0x00, 0x07, 0x00, 0x00, 0x07, 0x00, 0x00, 0x07,
   0x00, 0x80, 0x0d, 0x00, 0x80, 0x0d, 0x00, 0xc0, 0x18, 0x00, 0xc0, 0x18,
   0x00, 0x60, 0x30, 0x00, 0x60, 0x30, 0x00, 0x00, 0x00, 0x00, 0x00, 0x00,
   0x00, 0x00, 0x00, 0x00, 0x00, 0x00, 0x00, 0x00, 0x00, 0x00, 0x00, 0x00,
   0x02, 0x01, 0x00, 0x02, 0x01, 0x00, 0x86, 0x01, 0x00, 0x86, 0x01, 0x00,
   0xcc, 0x00, 0x00, 0xcc, 0x00, 0x00, 0x78, 0x00, 0x00, 0x78, 0x00, 0x00,
   0x30, 0x00, 0x00, 0x30, 0x00, 0x00, 0x78, 0x00, 0x00, 0x78, 0x00, 0x00,
   0xcc, 0x00, 0x00, 0xcc, 0x00, 0x00, 0x86, 0x01, 0x00, 0x86, 0x01, 0x00,
   0x02, 0x01, 0x00, 0x02, 0x01, 0x00, 0x00, 0x00, 0x00, 0x00, 0x00, 0x00,
   0x00, 0x00, 0x00, 0x00, 0x00, 0x00, 0x00, 0x00, 0x00, 0x00, 0x00, 0x00,
   0x00, 0x20, 0x20, 0x00, 0x20, 0x20, 0x00, 0x60, 0x30, 0x00, 0x60, 0x30,
   0x00, 0xc0, 0x18, 0x00, 0xc0, 0x18, 0x00, 0x80, 0x0d, 0x00, 0x80, 0x0d,
   0x00, 0x00, 0x07, 0x00, 0x00, 0x07, 0x00, 0x00, 0x07, 0x00, 0x00, 0x07,
   0x00, 0x80, 0x0d, 0x00, 0x80, 0x0d, 0x00, 0xc0, 0x18, 0x00, 0xc0, 0x18,
   0x00, 0x60, 0x30, 0x00, 0x60, 0x30, 0x00, 0x00, 0x00, 0x00, 0x00, 0x00};
