#define m43.xbm_width 30
#define m43.xbm_height 24
static char m43.xbm_bits[] = {
   0x00, 0xc0, 0x03, 0x00, 0x01, 0x38, 0x06, 0x00, 0x03, 0x06, 0x0c, 0x00,
   0xc6, 0x01, 0x08, 0x00, 0x3c, 0x00, 0x00, 0x00, 0x00, 0x00, 0x00, 0x00,
   0x00, 0x00, 0x00, 0x00, 0x00, 0x00, 0x00, 0x00, 0x00, 0x00, 0x00, 0x00,
   0x00, 0x00, 0x00, 0x00, 0x00, 0x00, 0x00, 0x00, 0x00, 0x00, 0x00, 0x00,
   0x07, 0x00, 0x00, 0x20, 0x0c, 0x80, 0x00, 0x1c, 0x18, 0x80, 0x01, 0x03,
   0x10, 0x00, 0xe3, 0x00, 0x00, 0x00, 0x1e, 0x00, 0x00, 0x00, 0x00, 0x00,
   0x00, 0x00, 0x00, 0x00, 0x00, 0x00, 0x00, 0x00, 0x00, 0x00, 0x00, 0x00,
   0x00, 0x00, 0x00, 0x00, 0x00, 0x00, 0x00, 0x00, 0x00, 0x00, 0x00, 0x00};
