#define m45.xbm_width 128
#define m45.xbm_height 128
static char m45.xbm_bits[] = {
   0x10, 0x01, 0x20, 0x00, 0x02, 0x08, 0x00, 0x41, 0x00, 0x81, 0x00, 0x41,
   0x08, 0x08, 0x04, 0x08, 0x08, 0x01, 0x30, 0x80, 0x01, 0x04, 0x80, 0x20,
   0x80, 0x40, 0x00, 0x21, 0x08, 0x04, 0x02, 0x04, 0x86, 0x00, 0x08, 0x40,
   0x00, 0x02, 0x40, 0x10, 0x60, 0x30, 0x80, 0x10, 0x04, 0x04, 0x01, 0x02,
   0x41, 0x00, 0x04, 0x20, 0x00, 0x03, 0x20, 0x10, 0x10, 0x08, 0x42, 0x08,
   0x02, 0x82, 0x00, 0xc1, 0x20, 0x10, 0x02, 0x10, 0x00, 0x40, 0x10, 0x08,
   0x08, 0x04, 0x22, 0x04, 0x01, 0x41, 0x40, 0x30, 0x10, 0x08, 0x01, 0x08,
   0x80, 0x40, 0x10, 0x04, 0x04, 0x03, 0x01, 0x02, 0x80, 0x20, 0x20, 0x08,
   0x08, 0x84, 0x00, 0x04, 0x40, 0x20, 0x08, 0x02, 0x83, 0x80, 0x10, 0x81,
   0x40, 0x10, 0x10, 0x04, 0x08, 0x42, 0x08, 0x02, 0x21, 0x10, 0x04, 0x80,
   0x40, 0x40, 0x80, 0x60, 0x20, 0x08, 0x08, 0x02, 0x04, 0x41, 0x04, 0xc1,
   0x10, 0x08, 0x02, 0x41, 0x20, 0x40, 0x48, 0x10, 0x10, 0x04, 0x04, 0x02,
   0x82, 0x20, 0x82, 0x20, 0x10, 0x08, 0x81, 0x20, 0x18, 0x20, 0x24, 0x0c,
   0x08, 0x02, 0x02, 0x01, 0x81, 0x10, 0x42, 0x10, 0x08, 0x84, 0x40, 0x10,
   0x04, 0x10, 0x12, 0x02, 0x04, 0x01, 0x81, 0x80, 0x40, 0x08, 0x21, 0x08,
   0x04, 0x42, 0x20, 0x08, 0x02, 0x10, 0x01, 0x01, 0x00, 0x80, 0x40, 0x40,
   0x20, 0x84, 0x10, 0x04, 0x02, 0x21, 0x10, 0x04, 0x21, 0x88, 0xc0, 0x40,
   0x80, 0x40, 0x20, 0x20, 0x10, 0x42, 0x08, 0x02, 0x81, 0x10, 0x08, 0x42,
   0x10, 0x04, 0x20, 0x20, 0x40, 0x20, 0x20, 0x18, 0x08, 0x21, 0x04, 0x81,
   0x40, 0x08, 0x04, 0x21, 0x08, 0x42, 0x10, 0x10, 0x20, 0x10, 0x18, 0x04,
   0x84, 0x10, 0x82, 0x40, 0x20, 0x04, 0x82, 0x10, 0x04, 0x21, 0x10, 0x0c,
   0x10, 0x08, 0x0c, 0x02, 0x42, 0x08, 0x41, 0x40, 0x10, 0x02, 0x43, 0x08,
   0x82, 0x10, 0x08, 0x82, 0x08, 0x04, 0x82, 0x00, 0x41, 0x84, 0x20, 0x20,
   0x08, 0x81, 0x20, 0x04, 0x41, 0x08, 0x04, 0x41, 0x04, 0x02, 0x41, 0x80,
   0x20, 0x42, 0x10, 0x10, 0x04, 0x41, 0x10, 0x82, 0x20, 0x04, 0x82, 0x20,
   0x02, 0x81, 0x20, 0x40, 0x10, 0x21, 0x08, 0x08, 0x82, 0x20, 0x08, 0x41,
   0x10, 0x02, 0x41, 0x10, 0x82, 0x40, 0x10, 0x20, 0x08, 0x10, 0x04, 0x04,
   0x41, 0x10, 0xc0, 0x20, 0x00, 0x81, 0x20, 0x08, 0x41, 0x20, 0x08, 0x10,
   0x04, 0x10, 0x02, 0x00, 0x21, 0x08, 0x20, 0x20, 0x00, 0x41, 0x18, 0x84,
   0x20, 0x10, 0x06, 0x08, 0x02, 0x08, 0x01, 0x80, 0x10, 0x04, 0x10, 0x10,
   0x84, 0x20, 0x04, 0x42, 0x10, 0x10, 0x01, 0x04, 0x01, 0x84, 0x40, 0x40,
   0x08, 0x02, 0x08, 0x08, 0x82, 0x10, 0x02, 0x22, 0x08, 0x88, 0x00, 0x03,
   0x10, 0x42, 0x20, 0x20, 0x04, 0x21, 0x04, 0x04, 0x41, 0x08, 0x01, 0x21,
   0x04, 0x41, 0x80, 0x80, 0x08, 0x41, 0x10, 0x10, 0x82, 0x10, 0x04, 0x82,
   0x40, 0x04, 0x81, 0x10, 0x82, 0x20, 0x80, 0x40, 0x84, 0x20, 0x08, 0x10,
   0x41, 0x08, 0x02, 0x81, 0x20, 0x82, 0x40, 0x08, 0x41, 0x10, 0x40, 0x30,
   0x42, 0x10, 0x04, 0x08, 0x20, 0x04, 0x81, 0x40, 0x10, 0x41, 0x20, 0x84,
   0x20, 0x08, 0x20, 0x08, 0x21, 0x00, 0x02, 0x04, 0x10, 0x82, 0x40, 0x20,
   0x88, 0x20, 0x10, 0x42, 0x10, 0x04, 0x10, 0x84, 0x10, 0x00, 0x02, 0x02,
   0x08, 0x41, 0x20, 0x10, 0x44, 0x10, 0x08, 0x21, 0x08, 0x02, 0x08, 0x42,
   0x08, 0x01, 0x01, 0x01, 0x84, 0x20, 0x00, 0x08, 0x22, 0x08, 0x84, 0x10,
   0x04, 0x21, 0x04, 0x21, 0x80, 0x80, 0x80, 0x20, 0x42, 0x10, 0x00, 0x04,
   0x11, 0x04, 0x43, 0x08, 0x82, 0x10, 0x82, 0x10, 0x40, 0x40, 0x40, 0x10,
   0x21, 0x08, 0x00, 0x02, 0x08, 0x82, 0x20, 0x04, 0x41, 0x08, 0x41, 0x08,
   0x30, 0x20, 0x20, 0x88, 0x00, 0x84, 0x00, 0x02, 0x08, 0x41, 0x10, 0x82,
   0x20, 0x84, 0x20, 0x04, 0x18, 0x10, 0x10, 0x44, 0x00, 0x42, 0x20, 0x01,
   0x84, 0x40, 0x08, 0x41, 0x10, 0x42, 0x10, 0x02, 0x04, 0x08, 0x08, 0x02,
   0x00, 0x42, 0x90, 0x00, 0x02, 0x20, 0x84, 0x20, 0x08, 0x21, 0x08, 0x01,
   0x02, 0x04, 0x04, 0x01, 0x00, 0x21, 0x48, 0x00, 0x00, 0x10, 0x40, 0x10,
   0x80, 0x10, 0x06, 0x01, 0x01, 0x02, 0x82, 0x00, 0x84, 0x10, 0x04, 0x00,
   0x80, 0x08, 0x20, 0x08, 0x40, 0x08, 0x81, 0x80, 0x00, 0x01, 0x41, 0x00,
   0x42, 0x10, 0x04, 0x04, 0x41, 0x08, 0x10, 0x04, 0x21, 0x84, 0x40, 0x40,
   0x80, 0x80, 0x20, 0x00, 0x21, 0x08, 0x02, 0x82, 0x20, 0x04, 0x08, 0x82,
   0x10, 0x42, 0x40, 0x20, 0x40, 0x40, 0x10, 0x80, 0x00, 0x04, 0x01, 0x41,
   0x10, 0x02, 0x04, 0x41, 0x08, 0x21, 0x20, 0x10, 0x40, 0x20, 0x08, 0x42,
   0x00, 0x82, 0x00, 0x21, 0x08, 0x01, 0x82, 0x20, 0x84, 0x10, 0x10, 0x10,
   0x20, 0x10, 0x04, 0x21, 0x00, 0x81, 0x80, 0x10, 0x84, 0x00, 0x41, 0x10,
   0x42, 0x08, 0x08, 0x08, 0x10, 0x08, 0x82, 0x10, 0x00, 0x41, 0x40, 0x08,
   0x42, 0x80, 0x20, 0x08, 0x01, 0x04, 0x04, 0x04, 0x08, 0x04, 0x40, 0x08,
   0x80, 0x20, 0x20, 0x08, 0x21, 0x40, 0x10, 0x84, 0x00, 0x02, 0x02, 0x02,
   0x04, 0x00, 0x20, 0x04, 0x40, 0x10, 0x10, 0x84, 0x10, 0x24, 0x08, 0x42,
   0x00, 0x02, 0x01, 0x01, 0x02, 0x02, 0x10, 0x42, 0x20, 0x08, 0x08, 0x42,
   0x08, 0x12, 0x04, 0x21, 0x00, 0x81, 0x80, 0x00, 0x01, 0x41, 0x08, 0x21,
   0x10, 0x04, 0x06, 0x01, 0x04, 0x09, 0x82, 0x10, 0x80, 0x40, 0x40, 0x00,
   0x80, 0x20, 0x04, 0x10, 0x08, 0x02, 0x81, 0x20, 0x80, 0x04, 0x41, 0x10,
   0x40, 0x20, 0x20, 0x80, 0x40, 0x10, 0x02, 0x08, 0x04, 0x81, 0x40, 0x10,
   0x40, 0x82, 0x20, 0x08, 0x20, 0x08, 0x10, 0x40, 0x20, 0x08, 0x01, 0x04,
   0x82, 0x40, 0x20, 0x00, 0x20, 0x41, 0x10, 0x04, 0x10, 0x04, 0x08, 0x20,
   0x10, 0x84, 0x00, 0x02, 0x40, 0x20, 0x10, 0x00, 0x98, 0x20, 0x08, 0x02,
   0x08, 0x02, 0x04, 0x10, 0x00, 0x42, 0x00, 0x01, 0x20, 0x00, 0x08, 0x00,
   0x44, 0x10, 0x04, 0x01, 0x04, 0x01, 0x02, 0x08, 0x08, 0x21, 0x80, 0x00,
   0x10, 0x00, 0x04, 0x01, 0x22, 0x08, 0x82, 0x00, 0x82, 0x80, 0x01, 0x04,
   0x84, 0x10, 0x40, 0x00, 0x08, 0x00, 0x82, 0x00, 0x11, 0x04, 0x41, 0x00,
   0x41, 0x40, 0x00, 0x03, 0x42, 0x08, 0x20, 0x20, 0x04, 0x00, 0x41, 0xc0,
   0x08, 0x82, 0x20, 0x20, 0x20, 0x20, 0x80, 0x00, 0x21, 0x04, 0x10, 0x10,
   0x42, 0x80, 0x20, 0x20, 0x04, 0x01, 0x10, 0x10, 0x10, 0x10, 0x40, 0x80,
   0x10, 0x02, 0x08, 0x08, 0x21, 0x40, 0x10, 0x18, 0x82, 0x00, 0x08, 0x08,
   0x08, 0x08, 0x20, 0x40, 0x80, 0x01, 0x04, 0x84, 0x10, 0x20, 0x0c, 0x04,
   0x41, 0x00, 0x04, 0x06, 0x04, 0x04, 0x10, 0x20, 0x40, 0x00, 0x02, 0x42,
   0x08, 0x10, 0x02, 0x82, 0x20, 0x00, 0x02, 0x01, 0x02, 0x00, 0x08, 0x10,
   0x20, 0x00, 0x01, 0x01, 0x06, 0x08, 0x01, 0x41, 0x00, 0x08, 0x81, 0x00,
   0x01, 0x00, 0x06, 0x08, 0x10, 0x80, 0x80, 0x00, 0x01, 0x84, 0x80, 0x00,
   0x00, 0xc4, 0x40, 0x80, 0x00, 0x00, 0x21, 0x04, 0x08, 0x40, 0x40, 0x80,
   0x00, 0x82, 0x40, 0x00, 0x00, 0x22, 0x20, 0x40, 0x40, 0xc0, 0x10, 0x02,
   0x04, 0x20, 0x40, 0x40, 0x00, 0x40, 0x00, 0x00, 0x00, 0x01, 0x10, 0x20,
   0x20, 0x20, 0x08, 0x01, 0x02, 0x10, 0x20, 0x20, 0x00, 0x20, 0x00, 0x02,
   0x84, 0x00, 0x08, 0x10, 0x10, 0x10, 0x84, 0x00, 0x01, 0x08, 0x10, 0x10,
   0x00, 0x18, 0x00, 0x01, 0x42, 0x00, 0x06, 0x08, 0x08, 0x08, 0x42, 0x80,
   0x00, 0x04, 0x0c, 0x08, 0x08, 0x04, 0x80, 0x00, 0x21, 0x00, 0x01, 0x04,
   0x04, 0x04, 0x21, 0x40, 0x00, 0x02, 0x02, 0x04, 0x04, 0x02, 0x40, 0x80,
   0x18, 0x82, 0x00, 0x02, 0x02, 0x83, 0x10, 0x20, 0x00, 0x01, 0x01, 0x03,
   0x02, 0x41, 0x20, 0x40, 0x04, 0x41, 0x00, 0x81, 0x81, 0x60, 0x08, 0x10,
   0x80, 0x80, 0x80, 0x00, 0x81, 0x20, 0x10, 0x20, 0x82, 0x20, 0xc0, 0x40,
   0x40, 0x10, 0x04, 0x08, 0x40, 0x40, 0x40, 0x80, 0x40, 0x10, 0x08, 0x10,
   0x41, 0x10, 0x20, 0x20, 0x00, 0x08, 0x02, 0x06, 0x20, 0x20, 0x20, 0x40,
   0x20, 0x08, 0x04, 0x88, 0x20, 0x08, 0x10, 0x10, 0x00, 0x04, 0x01, 0x01,
   0x10, 0x10, 0x10, 0x20, 0x10, 0x04, 0x04, 0x44, 0x10, 0x06, 0x08, 0x08,
   0x00, 0x82, 0x80, 0x00, 0x0c, 0x08, 0x08, 0x18, 0x08, 0x04, 0x02, 0x22,
   0x08, 0x01, 0x04, 0x04, 0x02, 0x41, 0x40, 0x00, 0x02, 0x04, 0x04, 0x04,
   0x04, 0x02, 0x01, 0x01, 0x84, 0x00, 0x02, 0x02, 0x81, 0x20, 0x20, 0x00,
   0x01, 0x02, 0x02, 0x02, 0x02, 0x81, 0x80, 0x00, 0x43, 0x00, 0x01, 0x81,
   0x40, 0x10, 0x10, 0x80, 0x00, 0x01, 0x01, 0x01, 0x81, 0x60, 0x40, 0x80,
   0x20, 0x80, 0x80, 0x40, 0x20, 0x08, 0x08, 0x40, 0x80, 0xc0, 0x80, 0x80,
   0x60, 0x10, 0x20, 0x40, 0x10, 0x60, 0x40, 0x30, 0x18, 0x04, 0x84, 0x20,
   0x40, 0x20, 0x40, 0x40, 0x10, 0x08, 0x10, 0x20, 0x08, 0x10, 0x20, 0x08,
   0x04, 0x02, 0x42, 0x10, 0x20, 0x10, 0x20, 0x20, 0x08, 0x04, 0x0c, 0x10,
   0x06, 0x08, 0x18, 0x04, 0x02, 0x02, 0x21, 0x08, 0x10, 0x08, 0x10, 0x10,
   0x00, 0x02, 0x02, 0x0c, 0x01, 0x04, 0x04, 0x02, 0x01, 0x81, 0x10, 0x04,
   0x08, 0x04, 0x08, 0x08, 0x40, 0x00, 0x01, 0x82, 0x00, 0x43, 0x02, 0x81,
   0x80, 0x60, 0x08, 0x04, 0x04, 0x04, 0x04, 0x04, 0x20, 0xc0, 0x00, 0x41,
   0x80, 0x20, 0x81, 0x40, 0x40, 0x10, 0x04, 0x02, 0x02, 0x02, 0x02, 0x80,
   0x10, 0x38, 0x80, 0x00, 0x40, 0x10, 0xc0, 0x20, 0x20, 0x08, 0x02, 0x81,
   0x01, 0x81, 0x01, 0x40, 0x08, 0x06, 0x60, 0x00, 0x2c, 0x08, 0x20, 0x10,
   0x10, 0x04, 0x81, 0x40, 0x80, 0x40, 0x00, 0x20, 0x04, 0x01, 0x18, 0x00,
   0x03, 0x04, 0x10, 0x08, 0x08, 0x82, 0x40, 0x20, 0x40, 0x20, 0x00, 0x10,
   0x84, 0x00, 0x06, 0x80, 0x00, 0x02, 0x0c, 0x04, 0x04, 0x41, 0x20, 0x10,
   0x20, 0x10, 0x20, 0x08, 0x42, 0x80, 0x01, 0x61, 0x00, 0x01, 0x02, 0x04,
   0x82, 0x20, 0x10, 0x08, 0x10, 0x0c, 0x10, 0x06, 0x21, 0x60, 0xc0, 0x10,
   0x80, 0x80, 0x01, 0x02, 0x42, 0x10, 0x08, 0x06, 0x08, 0x02, 0x08, 0x81,
   0x10, 0x10, 0x20, 0x08, 0x40, 0x60, 0x80, 0x01, 0x21, 0x08, 0x04, 0x01,
   0x04, 0x01, 0x86, 0x40, 0x08, 0x08, 0x10, 0x04, 0x20, 0x10, 0x40, 0x80,
   0x10, 0x04, 0x82, 0x00, 0x82, 0x00, 0x41, 0x20, 0x00, 0x04, 0x0c, 0x02,
   0x10, 0x08, 0x20, 0x60, 0x08, 0x02, 0x41, 0x00, 0x41, 0x80, 0x20, 0x18,
   0x00, 0x02, 0x82, 0x41, 0x08, 0x04, 0x10, 0x10, 0x04, 0x81, 0x20, 0x80,
   0x20, 0x40, 0x10, 0x04, 0x00, 0x01, 0x43, 0x30, 0x04, 0x02, 0x08, 0x08,
   0x02, 0x40, 0x10, 0x40, 0x18, 0x20, 0x00, 0x02, 0x80, 0xc0, 0x30, 0x08,
   0x04, 0x01, 0x06, 0x04, 0x01, 0x20, 0x10, 0x20, 0x04, 0x10, 0x00, 0x81,
   0x40, 0x20, 0x08, 0x04, 0x82, 0x00, 0x01, 0x82, 0x00, 0x10, 0x08, 0x10,
   0x02, 0x0c, 0x80, 0x60, 0x20, 0x10, 0x04, 0x03, 0x41, 0xc8, 0x80, 0x41,
   0x20, 0x08, 0x04, 0x08, 0x01, 0x02, 0x40, 0x10, 0x18, 0x08, 0x80, 0x80,
   0x20, 0x24, 0x40, 0x20, 0x10, 0x04, 0x02, 0x04, 0x00, 0x01, 0x30, 0x08,
   0x04, 0x06, 0x60, 0x40, 0x10, 0x12, 0x20, 0x10, 0x08, 0x02, 0x01, 0x02,
   0x80, 0x00, 0x08, 0x04, 0x02, 0x01, 0x18, 0x20, 0x08, 0x09, 0x10, 0x08,
   0x04, 0x81, 0x00, 0x01, 0x40, 0x00, 0x04, 0x82, 0x81, 0x00, 0x06, 0x18,
   0x80, 0x08, 0x0c, 0x04, 0x82, 0x40, 0x80, 0x00, 0x20, 0x00, 0x03, 0x41,
   0x60, 0x80, 0x01, 0x04, 0x40, 0x04, 0x02, 0x02, 0x41, 0x20, 0x40, 0x80,
   0x18, 0x80, 0x80, 0x30, 0x10, 0x60, 0x00, 0x02, 0x20, 0x02, 0x01, 0x81,
   0x00, 0x10, 0x30, 0x40, 0x04, 0x00, 0x40, 0x08, 0x0c, 0x18, 0x84, 0x01,
   0x10, 0x81, 0x80, 0x40, 0x00, 0x08, 0x08, 0x20, 0x02, 0x00, 0x20, 0x04,
   0x02, 0x06, 0x42, 0x40, 0x88, 0x40, 0x40, 0x20, 0x00, 0x04, 0x04, 0x10,
   0x01, 0x00, 0x10, 0x02, 0x01, 0x81, 0x21, 0x30, 0x04, 0x00, 0x20, 0x10,
   0x04, 0x02, 0x02, 0x10, 0x00, 0x00, 0x08, 0xc1, 0x80, 0x40, 0x10, 0x08,
   0x02, 0x00, 0x00, 0x08, 0x02, 0x81, 0x01, 0x88, 0x00, 0x08, 0x04, 0x20,
   0x40, 0x20, 0x0c, 0x84, 0x01, 0x00, 0x02, 0x04, 0x81, 0x40, 0x00, 0x44,
   0x00, 0x04, 0x02, 0x10, 0x20, 0x10, 0x02, 0x42, 0x00, 0x04, 0x01, 0xc2,
   0x40, 0x20, 0x00, 0x22, 0x00, 0x02, 0x01, 0x08, 0x10, 0x0c, 0x01, 0x21,
   0x00, 0x82, 0x00, 0x21, 0x20, 0x10, 0x01, 0x11, 0x80, 0x81, 0x00, 0x04,
   0x08, 0x82, 0x80, 0x20, 0x00, 0x41, 0xc0, 0x10, 0x10, 0x8c, 0x80, 0x10,
   0x40, 0x40, 0x00, 0x02, 0x84, 0x61, 0x40, 0x10, 0x88, 0x20, 0x20, 0x08,
   0x0c, 0x42, 0x40, 0x08, 0x20, 0x20, 0x80, 0x01, 0x42, 0x10, 0x20, 0x08,
   0x44, 0x10, 0x10, 0x04, 0x02, 0x21, 0x20, 0x04, 0x10, 0x10, 0x70, 0x80,
   0x21, 0x08, 0x10, 0x04, 0x21, 0x08, 0x08, 0x02, 0x81, 0x10, 0x10, 0x02,
   0x18, 0x08, 0x0c, 0x40, 0x10, 0x04, 0x08, 0x82, 0x10, 0x04, 0x04, 0x81,
   0x40, 0x08, 0x08, 0x02, 0x06, 0x04, 0x02, 0x30, 0x08, 0x02, 0x04, 0x41,
   0x08, 0x02, 0xc3, 0x40, 0x00, 0x04, 0x84, 0x01, 0x01, 0x02, 0x01, 0x08,
   0x04, 0x01, 0x82, 0x20, 0x04, 0xc1, 0x20, 0x20, 0x00, 0x02, 0x43, 0x80,
   0x00, 0xc1, 0x00, 0x04, 0x82, 0x00, 0x01, 0x10, 0x82, 0x20, 0x10, 0x04,
   0x08, 0x81, 0x20, 0x40, 0xc0, 0x20, 0x00, 0x03, 0x81, 0xc0, 0x00, 0x0c,
   0x81, 0x18, 0x08, 0x02, 0x84, 0x40, 0x18, 0x20, 0x30, 0x00, 0x80, 0x80,
   0x40, 0x20, 0x00, 0x82, 0x40, 0x04, 0x00, 0x01, 0x42, 0x30, 0x04, 0x10,
   0x08, 0x00, 0x40, 0x60, 0x20, 0x10, 0x00, 0x41, 0x20, 0x02, 0x80, 0x00,
   0x21, 0x08, 0x02, 0x08, 0x04, 0x00, 0x30, 0x10, 0x18, 0x08, 0x84, 0x20,
   0x10, 0x21, 0x60, 0xc0, 0x10, 0x04, 0x02, 0x04, 0x02, 0x04, 0x08, 0x08,
   0x04, 0x06, 0x42, 0x10, 0x88, 0x10, 0x10, 0x20, 0x08, 0x02, 0x01, 0x03,
   0x01, 0x02, 0x04, 0x04, 0x02, 0x01, 0x31, 0x08, 0x44, 0x08, 0x08, 0x10,
   0x04, 0x81, 0x80, 0x00, 0x00, 0x01, 0x03, 0x02, 0x81, 0x80, 0x08, 0x04,
   0x22, 0x04, 0x04, 0x08, 0xc2, 0x40, 0x40, 0xc0, 0xc0, 0x80, 0x80, 0x01,
   0x60, 0x40, 0x04, 0x02, 0x01, 0x02, 0x02, 0x04, 0x21, 0x20, 0x20, 0x20,
   0x20, 0x00, 0x40, 0x00, 0x18, 0x20, 0x00, 0xc1, 0x00, 0x01, 0x01, 0x82,
   0x10, 0x10, 0x18, 0x10, 0x10, 0x00, 0x20, 0x00, 0x04, 0x10, 0x80, 0x20,
   0x80, 0x80, 0x00, 0x42, 0x10, 0x08, 0x04, 0x08};
