#define m56.xbm_width 64
#define m56.xbm_height 64
static char m56.xbm_bits[] = {
   0x00, 0x00, 0x00, 0x03, 0x30, 0x00, 0x00, 0x03, 0x00, 0x00, 0x00, 0x00,
   0x30, 0x00, 0x00, 0x00, 0x03, 0x30, 0x00, 0x00, 0x00, 0xc0, 0x00, 0x00,
   0x03, 0x30, 0x30, 0x60, 0x00, 0xc0, 0x00, 0x00, 0x00, 0x00, 0x30, 0x60,
   0x00, 0x00, 0x00, 0x00, 0x00, 0x00, 0x00, 0x00, 0x00, 0x00, 0x00, 0x00,
   0x00, 0x00, 0x00, 0x00, 0x80, 0x01, 0x60, 0x00, 0x00, 0x00, 0x00, 0x00,
   0x80, 0x01, 0x60, 0x00, 0x01, 0x06, 0x00, 0x00, 0x00, 0x00, 0x00, 0x80,
   0x01, 0x06, 0x00, 0x00, 0x00, 0x00, 0x00, 0x80, 0x00, 0x00, 0x00, 0x00,
   0x00, 0x00, 0x00, 0x00, 0x00, 0x00, 0x06, 0x00, 0x0c, 0x60, 0x00, 0x00,
   0x00, 0x00, 0x06, 0x00, 0x0c, 0x60, 0x00, 0x03, 0x00, 0x00, 0x00, 0x0c,
   0x00, 0x00, 0x00, 0x03, 0x00, 0x00, 0x00, 0x0c, 0x00, 0x00, 0x00, 0x00,
   0x18, 0x30, 0x00, 0x00, 0x00, 0x00, 0x00, 0x00, 0x18, 0x30, 0x00, 0x00,
   0x00, 0x00, 0x00, 0x00, 0x00, 0x00, 0x00, 0x00, 0x00, 0x00, 0x00, 0x00,
   0x00, 0x00, 0x00, 0x00, 0x60, 0x00, 0x0c, 0x00, 0x00, 0x00, 0x30, 0x00,
   0x60, 0x00, 0x0c, 0x0c, 0x00, 0x00, 0x30, 0x00, 0x00, 0x00, 0x00, 0x0c,
   0x00, 0x00, 0x00, 0x00, 0x00, 0x00, 0x00, 0x00, 0x00, 0x0c, 0x00, 0x00,
   0x00, 0x18, 0x00, 0x00, 0x00, 0x0c, 0x00, 0x60, 0x00, 0x18, 0x00, 0x00,
   0x18, 0x00, 0x00, 0x60, 0x00, 0x00, 0x00, 0x00, 0x18, 0x00, 0x00, 0x00,
   0x00, 0x00, 0x30, 0x00, 0x00, 0x00, 0x0c, 0x00, 0x30, 0x00, 0x30, 0x00,
   0x00, 0x00, 0x0c, 0x00, 0x30, 0x00, 0x00, 0x00, 0x00, 0x00, 0x00, 0x00,
   0x00, 0x00, 0x00, 0x00, 0x00, 0x00, 0x00, 0x00, 0x00, 0x00, 0x00, 0x00,
   0x00, 0x00, 0x00, 0x18, 0x00, 0x00, 0x00, 0x0c, 0x00, 0x00, 0x18, 0x18,
   0x00, 0x18, 0x00, 0x0c, 0x00, 0x0c, 0x18, 0x00, 0x00, 0x18, 0x00, 0x00,
   0x00, 0x0c, 0x00, 0x00, 0x00, 0x00, 0x18, 0x00, 0x01, 0x00, 0x00, 0x00,
   0x0c, 0x00, 0x18, 0x80, 0x01, 0x00, 0x00, 0x00, 0x0c, 0x00, 0x00, 0x80,
   0x00, 0x00, 0x00, 0x00, 0x00, 0x00, 0x00, 0x00, 0x00, 0x00, 0x00, 0x00,
   0x00, 0x00, 0x00, 0x00, 0x00, 0x00, 0x18, 0x00, 0x00, 0x00, 0x00, 0x00,
   0x00, 0x18, 0x18, 0x18, 0x80, 0x81, 0x01, 0x00, 0x00, 0x18, 0x00, 0x18,
   0x80, 0x81, 0x01, 0x00, 0x18, 0x00, 0x00, 0x00, 0x00, 0x00, 0x00, 0x06,
   0x18, 0x00, 0x00, 0x00, 0x00, 0x00, 0x00, 0x06, 0x00, 0x00, 0x00, 0x00,
   0x06, 0x00, 0x00, 0x00, 0x00, 0x00, 0x00, 0x00, 0x06, 0x00, 0x00, 0x00,
   0x00, 0x00, 0x30, 0x00, 0x00, 0x00, 0x00, 0x00, 0x00, 0x06, 0x30, 0x00,
   0x00, 0x60, 0x00, 0x00, 0x00, 0x06, 0x00, 0x00, 0x00, 0x60, 0xc0, 0x00,
   0x0c, 0x00, 0x00, 0x00, 0x00, 0x00, 0xc0, 0x00, 0x0c, 0x00, 0x00, 0x00,
   0x00, 0x00, 0x00, 0x00, 0x00, 0x00, 0x00, 0x00, 0x80, 0x01, 0x00, 0x00,
   0x00, 0x80, 0x01, 0x03, 0x80, 0x01, 0x00, 0x00, 0x00, 0x80, 0x01, 0x03,
   0x03, 0x00, 0x00, 0x00, 0x00, 0x00, 0x00, 0x00, 0x03, 0x00, 0x00, 0x00,
   0x00, 0x00, 0x00, 0x00, 0x00, 0x00, 0xc0, 0x60, 0x00, 0x00, 0x00, 0x00,
   0x00, 0x18, 0xc0, 0x60, 0x00, 0x00, 0x00, 0x00, 0x00, 0x18, 0x00, 0x00,
   0x00, 0x06, 0x00, 0x00, 0x00, 0x00, 0x00, 0x00, 0x00, 0x06, 0x06, 0x00,
   0x00, 0x00, 0x00, 0x00, 0x00, 0x00, 0x06, 0x00, 0x06, 0x00, 0x0c, 0x00,
   0x00, 0x00, 0x00, 0x00, 0x06, 0x00, 0x0c, 0x00, 0x00, 0x00, 0x00, 0x00,
   0x00, 0x06, 0x00, 0x00, 0x30, 0x00, 0x00, 0x03, 0x00, 0x06, 0x00, 0x00,
   0x30, 0x00, 0x00, 0x03, 0x00, 0x00, 0x00, 0x06};
