#define m58_width 40
#define m58_height 48
static char m58_bits[] = {
 0x01,0x10,0x00,0x00,0x00,0x01,0x10,0x00,0x00,0x00,0x02,0x08,0x00,0x00,0x00,
 0x02,0x08,0x00,0x00,0x00,0x02,0x08,0x00,0x00,0x00,0x04,0x04,0x00,0x00,0x00,
 0x04,0x04,0x00,0x00,0x00,0x04,0x04,0x00,0x00,0x00,0x08,0x02,0x00,0x00,0x00,
 0x08,0x02,0x00,0x00,0x00,0x10,0x01,0x00,0x00,0x00,0x10,0x01,0x00,0x00,0x00,
 0x10,0x01,0x00,0x00,0x00,0xa0,0x00,0x00,0x00,0x00,0xa0,0x00,0x00,0x00,0x00,
 0xa0,0x00,0x00,0x00,0x00,0x40,0x00,0x00,0x00,0x00,0x40,0x00,0x00,0x00,0x00,
 0x00,0x00,0x00,0x00,0x00,0x00,0x00,0x00,0x00,0x00,0x00,0x00,0x00,0x00,0x00,
 0x00,0x00,0x00,0x00,0x00,0x00,0x00,0x00,0x00,0x00,0x00,0x00,0x00,0x00,0x00,
 0x00,0x00,0x10,0x00,0x01,0x00,0x00,0x10,0x00,0x01,0x00,0x00,0x20,0x80,0x00,
 0x00,0x00,0x20,0x80,0x00,0x00,0x00,0x20,0x80,0x00,0x00,0x00,0x40,0x40,0x00,
 0x00,0x00,0x40,0x40,0x00,0x00,0x00,0x40,0x40,0x00,0x00,0x00,0x80,0x20,0x00,
 0x00,0x00,0x80,0x20,0x00,0x00,0x00,0x80,0x20,0x00,0x00,0x00,0x00,0x11,0x00,
 0x00,0x00,0x00,0x11,0x00,0x00,0x00,0x00,0x11,0x00,0x00,0x00,0x00,0x0a,0x00,
 0x00,0x00,0x00,0x0a,0x00,0x00,0x00,0x00,0x0a,0x00,0x00,0x00,0x00,0x04,0x00,
 0x00,0x00,0x00,0x04,0x00,0x00,0x00,0x00,0x00,0x00,0x00,0x00,0x00,0x00,0x00,
 0x00,0x00,0x00,0x00,0x00,0x00,0x00,0x00,0x00,0x00,0x00,0x00,0x00,0x00,0x00
 };
