#define m67v.xbm_width 40
#define m67v.xbm_height 40
static char m67v.xbm_bits[] = {
   0xff, 0x03, 0xf0, 0x3f, 0x00, 0x01, 0x02, 0x10, 0x20, 0x00, 0x01, 0x02,
   0x10, 0x20, 0x00, 0x01, 0x02, 0x10, 0x20, 0x00, 0x01, 0x02, 0x10, 0x20,
   0x00, 0x01, 0x02, 0x10, 0x20, 0x00, 0x01, 0x02, 0x10, 0x20, 0x00, 0x01,
   0x02, 0x10, 0x20, 0x00, 0x01, 0x02, 0x10, 0x20, 0x00, 0x01, 0x02, 0x10,
   0x20, 0x00, 0x01, 0x02, 0x10, 0x20, 0x00, 0x01, 0x02, 0x10, 0x20, 0x00,
   0x01, 0x02, 0x10, 0x20, 0x00, 0x01, 0x02, 0x10, 0x20, 0x00, 0x01, 0x02,
   0x10, 0x20, 0x00, 0x01, 0x02, 0x10, 0x20, 0x00, 0x01, 0x02, 0x10, 0x20,
   0x00, 0x01, 0x02, 0x10, 0x20, 0x00, 0x01, 0x02, 0x10, 0x20, 0x00, 0x01,
   0x02, 0x10, 0x20, 0x00, 0x01, 0xfe, 0x1f, 0xe0, 0xff, 0x01, 0x02, 0x10,
   0x20, 0x00, 0x01, 0x02, 0x10, 0x20, 0x00, 0x01, 0x02, 0x10, 0x20, 0x00,
   0x01, 0x02, 0x10, 0x20, 0x00, 0x01, 0x02, 0x10, 0x20, 0x00, 0x01, 0x02,
   0x10, 0x20, 0x00, 0x01, 0x02, 0x10, 0x20, 0x00, 0x01, 0x02, 0x10, 0x20,
   0x00, 0x01, 0x02, 0x10, 0x20, 0x00, 0x01, 0x02, 0x10, 0x20, 0x00, 0x01,
   0x02, 0x10, 0x20, 0x00, 0x01, 0x02, 0x10, 0x20, 0x00, 0x01, 0x02, 0x10,
   0x20, 0x00, 0x01, 0x02, 0x10, 0x20, 0x00, 0x01, 0x02, 0x10, 0x20, 0x00,
   0x01, 0x02, 0x10, 0x20, 0x00, 0x01, 0x02, 0x10, 0x20, 0x00, 0x01, 0x02,
   0x10, 0x20, 0x00, 0x01, 0x02, 0x10, 0x20, 0x00};
