#define m72_width 64
#define m72_height 64
static char m72_bits[] = {
 0x00,0x00,0x00,0x00,0x00,0x00,0x00,0x00,0x00,0x00,0x00,0x00,0x00,0x00,0x00,
 0x00,0x00,0x00,0x00,0xc0,0x07,0x00,0x00,0x00,0x00,0x00,0x00,0x40,0x00,0x00,
 0x00,0x00,0x0c,0x00,0x00,0x80,0x00,0x00,0x00,0x00,0x03,0x00,0x00,0x80,0x00,
 0x00,0x00,0x00,0x01,0x00,0x00,0x00,0x01,0x00,0x00,0x80,0x02,0x40,0x00,0x00,
 0x00,0x00,0x00,0x00,0x04,0x20,0x00,0x00,0x00,0x00,0x00,0x00,0x08,0x20,0x00,
 0x00,0x00,0x40,0x04,0x00,0x00,0x20,0x01,0x00,0x00,0x40,0x04,0x00,0x00,0xe0,
 0x00,0x00,0x00,0x80,0x02,0x00,0x00,0x00,0x00,0x00,0x00,0x80,0x02,0x00,0x00,
 0x00,0x00,0x10,0x00,0x00,0x01,0x00,0x00,0x00,0x00,0x60,0x00,0x00,0x00,0x00,
 0x00,0x00,0x00,0x80,0x01,0x00,0x00,0x00,0x00,0x00,0x00,0x80,0x00,0x00,0x00,
 0x00,0x00,0x00,0x00,0x60,0x00,0x00,0x00,0x00,0x00,0x00,0x00,0x10,0x00,0x00,
 0x00,0x00,0x00,0x00,0x00,0x00,0x00,0x00,0x00,0x00,0xe0,0x06,0x00,0x00,0x00,
 0x04,0x00,0x00,0x00,0x04,0x00,0x00,0x00,0x03,0x20,0x04,0x00,0x02,0x00,0x00,
 0xc0,0x00,0x20,0x02,0x00,0x01,0x00,0x00,0x00,0x03,0x40,0x01,0x80,0x00,0x00,
 0x00,0x00,0x04,0x40,0x01,0x00,0x00,0x00,0x00,0x00,0x00,0x80,0x00,0x00,0x00,
 0x00,0x01,0x00,0x00,0x00,0x00,0x00,0x00,0x00,0x01,0x00,0x00,0x00,0x00,0x00,
 0x00,0x00,0x02,0x00,0x00,0x00,0x00,0x00,0x00,0x00,0x02,0x00,0x00,0x00,0x00,
 0x00,0x00,0xc0,0x07,0x00,0x00,0x00,0x00,0x00,0x00,0x20,0x00,0x20,0x00,0x00,
 0x00,0x00,0x08,0x00,0x00,0x20,0x04,0x00,0x00,0x00,0x04,0x00,0x00,0x20,0x02,
 0x00,0x00,0x40,0x04,0x00,0x00,0x40,0x01,0x00,0x00,0x80,0x05,0x00,0x00,0xc0,
 0x00,0x80,0x01,0x00,0x06,0x00,0x00,0x40,0x00,0x78,0x00,0x00,0x00,0x00,0x00,
 0x00,0x00,0x10,0x00,0x00,0x00,0x00,0x00,0x00,0x00,0x10,0x00,0x00,0x00,0x00,
 0x00,0x00,0x00,0x20,0x00,0x00,0x00,0x00,0x70,0x00,0x00,0x40,0x00,0x00,0x00,
 0x00,0x4c,0x00,0x00,0x00,0x00,0x00,0x00,0x00,0x40,0x00,0x00,0x00,0x00,0x01,
 0x00,0x00,0x20,0x00,0x00,0x00,0x00,0x01,0x00,0x00,0x20,0x00,0x00,0x00,0x00,
 0x11,0x60,0x00,0x00,0x00,0x00,0x00,0x00,0x0d,0x20,0x00,0x00,0x00,0xc0,0x00,
 0x00,0x03,0x10,0x00,0x00,0x00,0x20,0x01,0x00,0x00,0xf8,0x01,0x00,0x00,0x10,
 0x01,0x00,0x00,0x00,0x00,0x00,0x00,0x08,0x02,0x00,0x00,0x00,0x00,0x00,0x00,
 0x00,0x00,0x00,0x00,0x00,0x00,0x00,0x00,0x00,0x00,0x00,0x00,0x00,0x00,0x00,
 0x02,0x00,0x00,0x00,0x00,0x00,0x00,0x00,0x01,0x00,0x00,0x00,0x00,0x00,0x00,
 0xc0,0x00,0x00,0x00,0x00,0x00,0x00,0x00,0x60,0x00,0x00,0x00,0x00,0x07,0x00,
 0x00,0x80,0x01,0x00,0x00,0xe0,0x04,0x00,0x01,0x00,0x06,0x00,0x00,0x00,0x02,
 0x00,0x06,0x00,0x00,0x00,0x00,0x00,0x01,0x00,0x38,0x00,0x00,0xf0,0x00,0x00,
 0x00,0x00,0x10,0x00,0x00,0x9c,0x00,0x80,0x00,0x00,0x0c,0x00,0x00,0x80,0x00,
 0x40,0x00,0x00,0x02,0x00,0x00,0x40,0x00,0x00,0x00,0x00,0x00,0x00,0x00,0x20,
 0x00,0x00};
