#define m82.xbm_width 24
#define m82.xbm_height 24
static char m82.xbm_bits[] = {
   0x0c, 0x00, 0x00, 0x12, 0x00, 0x00, 0x21, 0x00, 0x00, 0x21, 0x00, 0x00,
   0x12, 0x00, 0x00, 0x0c, 0x00, 0x00, 0x00, 0x00, 0x00, 0x00, 0x00, 0x00,
   0x00, 0x00, 0x00, 0x00, 0x00, 0x00, 0x00, 0x00, 0x00, 0x00, 0x00, 0x00,
   0x00, 0xc0, 0x00, 0x00, 0x20, 0x01, 0x00, 0x10, 0x02, 0x00, 0x10, 0x02,
   0x00, 0x20, 0x01, 0x00, 0xc0, 0x00, 0x00, 0x00, 0x00, 0x00, 0x00, 0x00,
   0x00, 0x00, 0x00, 0x00, 0x00, 0x00, 0x00, 0x00, 0x00, 0x00, 0x00, 0x00};
